<svg xmlns="http://www.w3.org/2000/svg" width="398" height="388" style="shape-rendering:geometricPrecision;text-rendering:geometricPrecision;image-rendering:optimizeQuality;fill-rule:evenodd;clip-rule:evenodd"><path fill="#525669" d="M67.5 8.5q3.16-1.452 7-1l186 2h-186a21.5 21.5 0 0 1-7-1" style="opacity:1"/><path fill="#2a2e43" d="M270.5 6.5q33.005-.25 66 .5 2.337.315 4 1.5-5.988.225-12 1h-68l-186-2q98.253.499 196-1" style="opacity:1"/><path fill="#020416" d="M74.5 9.5h254q5.903 1.403 12 2.5-2.451.74-5 .5a156 156 0 0 0-22-1h-238z" style="opacity:1"/><path fill="#70709e" d="M75.5 11.5h134l50 2q-52.256-.498-104 1h-7q-30.9-1.855-65 0-7.023.088-14-2z" style="opacity:1"/><path fill="#52527e" d="M209.5 11.5h104q2.688 1.215 6 1.5-29.995.75-60 .5z" style="opacity:1"/><path fill="#323551" d="M313.5 11.5q11.052-.275 22 1 1.144 1.152 3 1.5-18.493.75-37 .5-7.131 1.255-14 1a710 710 0 0 0-43-1h-89a2705 2705 0 0 1 104-1q30.005.25 60-.5-3.312-.285-6-1.5" style="opacity:1"/><path fill="#3f4353" d="M148.5 14.5q-11.222 1.488-23 1-17.046.033-34-.5-3.755.195-6 3l3 1-7 1q2 1 0 2-2.52.051-4.5.5-3.235-3.867-3.5 0a4.45 4.45 0 0 1-1.5-2 6.8 6.8 0 0 1-1.5 3q-9.645 2.904-12 11.5L57 36.5h-4q.926 2.392-1 4-1.207-3.601-2.5.5-1.424.925-2.5-.5-.684 1.866 1.5 2.5l-4 2a4.45 4.45 0 0 1 2 1.5q-1.16 1.816-2.5 0-.75 2.75-3.5 3.5 3.567 1.461-1 2l1 1a11.5 11.5 0 0 0-3.5 4.5l-1-2a20.2 20.2 0 0 1-1.5 6 4.45 4.45 0 0 1-1.5-2q-.02 3.147.5 5.5l-3 1q2 1 0 2 3.566 1.462-1 2 1.437 1.72-1 3 1.752 2.109-1 3.5 1.44 1.968-.5 4l-1-4a26.7 26.7 0 0 1-1.5 6.5q1.7 1.524-1 2l1 1q-3.03 7.63-4 15.5-.003-14.733 5-28.5l-1-1q6-1 0-2 4.567-.538 1-2 2.752-1.391 1-3.5.519-1.794 1.5 0 2.14-3.308 1.5-6.5l3.5-5.5 1 2a48 48 0 0 1 6.5-9.5q2.335-5.446 8-10 3.447-2.157 6.5-2.5.925-1.424-.5-2.5a39.4 39.4 0 0 0 6-4.5q-1.695-3.045 1.5-1 1.926-1.608 1-4 1.37 1.73 2.5-.5l-2-1 5.5-3.5 1 1q6.9-.963 13.5-2 34.1-1.855 65 0" style="opacity:1"/><path fill="#323744" d="M125.5 15.5q-5.052 2.338-11 2.5a12.14 12.14 0 0 1-3.5 4.5q-2.833-.885-6-1-5.536 3.422-12 5a3.94 3.94 0 0 1-2-1q-1.545 3.414-4.5 2a57 57 0 0 0-7.5 5l-1-1q-.538 4.566-2 1a23.6 23.6 0 0 1-3.5 3q.315.879 1 1.5-2.75.75-3.5 3.5l-1-2a10.25 10.25 0 0 1-1.5 4q-1.388 1.71-2.5 0-3.17 2.656.5 4.5-5.212 7.725-11 13l1 1q-6 1 0 2a30.3 30.3 0 0 0-7 6.5l-2.5-3q-2.895 3.277 1.5 5-1.828-.586-2.5 2-1.63-3.647-1.5 1-7.522 1.957-8.5 10l-1-4a167.5 167.5 0 0 0-9.5 19q.315.879 1 1.5-5.425 17.517-4 35.5a372 372 0 0 0-2 50q.465 4.82-1 9v-52a714 714 0 0 0 2-42q.97-7.87 4-15.5l-1-1q2.7-.476 1-2a26.7 26.7 0 0 0 1.5-6.5l1 4q1.94-2.032.5-4 2.752-1.391 1-3.5 2.437-1.28 1-3 4.566-.538 1-2 2-1 0-2l3-1q-.52-2.353-.5-5.5a4.45 4.45 0 0 0 1.5 2 20.2 20.2 0 0 0 1.5-6l1 2a11.5 11.5 0 0 1 3.5-4.5l-1-1q4.567-.539 1-2 2.75-.75 3.5-3.5 1.34 1.816 2.5 0a4.45 4.45 0 0 0-2-1.5l4-2q-2.184-.634-1.5-2.5 1.076 1.425 2.5.5 1.293-4.101 2.5-.5 1.926-1.608 1-4h4l1.5-1.5q2.355-8.596 12-11.5a6.8 6.8 0 0 0 1.5-3 4.45 4.45 0 0 0 1.5 2q.265-3.867 3.5 0 1.98-.449 4.5-.5 2-1 0-2l7-1-3-1q2.245-2.805 6-3 16.954.533 34 .5" style="opacity:1"/><path fill="#121523" d="M244.5 14.5a710 710 0 0 1 43 1q.626 1.083 2 1.5l-24 1 10 1q-4.101.316-7.5 2.5a4.46 4.46 0 0 0-1.5-2q-10.418 3.75-21 7.5l-8 1q.231 3.845-1.5 7.5a6.8 6.8 0 0 0-1.5-3q-3 4-6 0a87 87 0 0 1-4 6.5l-5 1q5.764 2.955 12 2 1.268 2.337-2 3 2.337.315 4 1.5-2.951.36-5.5-1l-1 2a99 99 0 0 1-11-3q-3.066.76-6 1-3.727-3.384-7 0-2.51-2.265-5-2a99 99 0 0 1-11 3l-1-1a111.6 111.6 0 0 1-25.5 4q-.166-.925-1-1.5 4.015-.375 7-3-4-2.5 0-5 3.821-.53 7 1 1.268-2.337-2-3a14.5 14.5 0 0 0 5-4l5-1q1.255-1.517 1-3.5 2.466-.32 4.5 1a4.93 4.93 0 0 0 .5-3q5.26-1.754 10.5 0a147 147 0 0 0 5-4 9.8 9.8 0 0 0 4 1 50 50 0 0 1 15.5-2.5q-3.578-.425-2-3-2.342-.476-3.5-2.5-.575.835-1.5 1 14.186-2.486 29-3" style="opacity:1"/><path fill="#0e101d" d="M301.5 14.5a251 251 0 0 0 22.5 2 71.8 71.8 0 0 1 23.5 0v4q-3.13 1.665-7 2-11.23-4.753-23.5-5-4.553 2.313-9.5 1.5l4-1a72.5 72.5 0 0 0-17 0l12 1q-8.71 1.662-17 1.5a26.6 26.6 0 0 0 3.5 2l5-1 1.5 1.5q-7.984.75-16 .5a8.4 8.4 0 0 1-.5 4q-.582-1.392-2-2-8.49 2.531-17.5 2.5.361 2.344-1.5 4.5a7.3 7.3 0 0 1-2-3q-5.59 4.285-12.5 6-5.148 4.088-1 9 2.318 1.428 5 1-1.131 4.133 0 8-7.817-6.922-18-7-1.663-1.185-4-1.5 3.268-.663 2-3-6.236.955-12-2l5-1a87 87 0 0 0 4-6.5q3 4 6 0a6.8 6.8 0 0 1 1.5 3q1.731-3.655 1.5-7.5l8-1q10.582-3.75 21-7.5a4.46 4.46 0 0 1 1.5 2q3.399-2.184 7.5-2.5l-10-1 24-1q-1.374-.417-2-1.5 6.869.255 14-1" style="opacity:1"/><path fill="#171b27" d="M160.5 49.5a734 734 0 0 0-11 8 3.65 3.65 0 0 0 1 1.5q-1.702 1.125-3-.5 1.486-2.434-2-3-2.57.57-3 3h-3q.329 1.762-1 3-.291-2.355 0-4.5-8.147-2.403-1-4-1.587-4.28 2-9-1.756-5.234 3.5-3.5 5.069-4.19 11.5-5.5-1.73-6.039 5-5.5-.393 2.217 1 4a29 29 0 0 1 2.5-5q1 6 2 0 6.584-5.846 15-3 3.249-2.432 7.5-2.5l2.5-2.5q2.057-.386 4.5 1a22.4 22.4 0 0 1 8-2.5l-1-1q6.982-.75 14-.5.925-.165 1.5-1 1.158 2.024 3.5 2.5-1.578 2.575 2 3a50 50 0 0 0-15.5 2.5 9.8 9.8 0 0 1-4-1 147 147 0 0 1-5 4q-5.24-1.754-10.5 0a4.93 4.93 0 0 1-.5 3q-2.034-1.32-4.5-1 .255 1.983-1 3.5l-5 1a14.5 14.5 0 0 1-5 4q3.268.663 2 3-3.179-1.53-7-1-4 2.5 0 5-2.985 2.625-7 3 .834.575 1 1.5" style="opacity:1"/><path fill="#222633" d="M157.5 14.5h22q-6.775 1-14 2-1.673 1.647 0 3.5-1.817 3.423-5 1.5-5.406 2.407-11.5 3-1.548 2.467-3.5 1-1.392 2.752-3.5 1a7.3 7.3 0 0 0-2 3 3.94 3.94 0 0 0-2-1q-5.704 1.44-11.5 2.5l-1 3q-2.911 1.114-5.5-.5-1.026 1.925.5 3.5a129 129 0 0 0-13 8q3.279.906.5 3.5-1.34-1.816-2.5 0l2 2q-2.118 1.96-5 2.5l5 1q-3.661.054-6 2.5 1.82 3.526-2 5.5 5.817 1.423 0 3.5l3 2a37.3 37.3 0 0 0-12 7.5 7.3 7.3 0 0 0 3 2q-1.293 4.101-2.5.5a103 103 0 0 0-2.5 8l-2-3q-1.846 1.725 0 3.5-2.32.5-4-1.5v6q-2.397-1.477-5-.5 2.115.552 3 2.5-2.259 1.87-4.5 0 .141 4.5-4 6-2.55 4.53-5 9l-2.5-3a3.65 3.65 0 0 0-1.5 1 76.4 76.4 0 0 0-2.5 12q-2.666-.43-5-2-4.56 4.782-11 6.5a32.5 32.5 0 0 0 7 3q-4.086 2.003-8 .5v4q-5.74-.09-2 3.5a8.4 8.4 0 0 1-4 .5l-2 8h-3a1477 1477 0 0 1-2.5 9q-4.734 1.738-.5 4.5-.608 1.418-2 2 3.442 1.476-1 2.5a100 100 0 0 0-2 5.5l3 1q-2.358 3.057-3 7a3.94 3.94 0 0 1 1 2 253 253 0 0 0-3 21.5q-3.446 6.482-3.5 14a3425 3425 0 0 1-1.5 83q.306-62.54-2-99l2-29q-.674 23.068 1 30 1.465-4.18 1-9a558 558 0 0 1 4-44.5 63.4 63.4 0 0 1-1-13.5 20.9 20.9 0 0 0 4-5.5q-.383-1.989-2-3 3.967-.887 2-4a18.3 18.3 0 0 1 4-7 7.3 7.3 0 0 0-3-2 30.3 30.3 0 0 1 8-5q-1.61-1.876 0-4a26.7 26.7 0 0 1 5.5-6.5q-.223-1.988.5-3.5 5.8-.753 11-3-5.535-.637-.5-2.5a7.3 7.3 0 0 1 2 3 28.4 28.4 0 0 1 4.5-7.5q-1.26-2.5 1.5-.5 4.581-2.8 4.5-8 5.248.362 1-2.5a12.1 12.1 0 0 1 4.5-3.5q.925-1.424-.5-2.5 2.45-.74 5-.5-.012-8.561 1.5-1 1.305-.912 1.5-2.5-.971-2.16-1-4.5 4.791.486 3-3.5a12.8 12.8 0 0 1 6-3 4.45 4.45 0 0 1-2-1.5q5.978-1.49 8-7a8.43 8.43 0 0 0 4-.5q-1.846-1.775 0-3.5a201 201 0 0 1 9-5.5q16.89-4.877 34-7l-1-3a15.3 15.3 0 0 0 4.5-1.5q5.18-.227 10 1a81 81 0 0 1 5.5-3" style="opacity:1"/><path fill="#1d202e" d="M179.5 14.5h65q-14.814.514-29 3-7.018-.25-14 .5l1 1a22.4 22.4 0 0 0-8 2.5q-2.443-1.386-4.5-1l-2.5 2.5q-4.251.068-7.5 2.5-8.416-2.846-15 3-1 6-2 0a29 29 0 0 0-2.5 5q-1.393-1.783-1-4-6.73-.539-5 5.5-6.431 1.31-11.5 5.5-5.256-1.734-3.5 3.5-3.587 4.72-2 9-7.147 1.597 1 4-.291 2.145 0 4.5 1.329-1.238 1-3h3q.895.352 1 1.5-2.034 2.35-2 5.5a16.46 16.46 0 0 0-7.5 4l-1-1q-1.417 5.953-7 4-3.326 5.285-9 8l-1-3q-2.738 2.97-2.5 7-6.744 1.44-2 7a26.9 26.9 0 0 1-3.5 6 4.46 4.46 0 0 0-1.5-2l-4 4a46 46 0 0 1-4 10q-4.197 2.18-9 3-3.285 2.26-4 6a23.8 23.8 0 0 1-9-1q-4.587 2.461-10 2.5 3.948 5.352 0 10.5.16 2.818-1.5 1l-3 4q-1.112-1.712-2.5 0a74 74 0 0 0-6.5 8l-1-1a45.7 45.7 0 0 0-8.5 7.5q.175 1.903 1 4-13.9 11.767-14.5 31.5a10.26 10.26 0 0 0-1.5-4 3.65 3.65 0 0 0-1.5 1q-.513 3.477 1.5 6.5-4 1 0 2-2.907 4.745-3 10.5-2.266 2.964-2.5 7l-1-3a42.3 42.3 0 0 1-1.5 8.5 138 138 0 0 1 4 14.5q-2.158 2.765.5 5a61 61 0 0 1 .5 11q-1.588-1.65-2.5-4l-1 3a5538 5538 0 0 0-4.5 77v-27a3425 3425 0 0 0 1.5-83q.054-7.518 3.5-14a253 253 0 0 1 3-21.5 3.94 3.94 0 0 0-1-2q.642-3.943 3-7l-3-1a100 100 0 0 1 2-5.5q4.442-1.024 1-2.5 1.392-.582 2-2-4.234-2.762.5-4.5a1477 1477 0 0 0 2.5-9h3l2-8a8.4 8.4 0 0 0 4-.5q-3.74-3.59 2-3.5v-4q3.914 1.503 8-.5a32.5 32.5 0 0 1-7-3q6.44-1.718 11-6.5 2.334 1.57 5 2 .766-6.09 2.5-12a3.65 3.65 0 0 1 1.5-1l2.5 3q2.45-4.47 5-9 4.141-1.5 4-6 2.241 1.87 4.5 0-.885-1.948-3-2.5 2.603-.977 5 .5v-6q1.68 2 4 1.5-1.846-1.775 0-3.5l2 3q1.092-4.07 2.5-8 1.207 3.601 2.5-.5a7.3 7.3 0 0 1-3-2 37.3 37.3 0 0 1 12-7.5l-3-2q5.817-2.077 0-3.5 3.82-1.974 2-5.5 2.339-2.446 6-2.5l-5-1q2.882-.54 5-2.5l-2-2q1.16-1.816 2.5 0 2.779-2.594-.5-3.5a129 129 0 0 1 13-8q-1.526-1.575-.5-3.5 2.589 1.614 5.5.5l1-3q5.796-1.06 11.5-2.5a3.94 3.94 0 0 1 2 1 7.3 7.3 0 0 1 2-3q2.108 1.752 3.5-1 1.952 1.467 3.5-1 6.094-.593 11.5-3 3.183 1.923 5-1.5-1.673-1.853 0-3.5 7.225-1 14-2" style="opacity:1"/><path fill="#161929" d="M328.5 9.5q6.012-.775 12-1 24.681 4.83 38 26-1.987-2.18-2.5 1-2.083-6.605-8.5-7.5 3.173 1.755 2 4.5-1.236-3.372-3-.5 2.49 2.232 3 5.5-6.16-4.406-11-10.5-4.815-1.802-8-6a4.93 4.93 0 0 0-3-.5v-4a71.8 71.8 0 0 0-23.5 0 251 251 0 0 1-22.5-2q18.507.25 37-.5-1.856-.348-3-1.5 2.549.24 5-.5a221 221 0 0 1-12-2.5" style="opacity:1"/><path fill="#080b15" d="M347.5 20.5a4.93 4.93 0 0 1 3 .5q3.185 4.198 8 6 4.84 6.094 11 10.5a155 155 0 0 0 5.5 16q1.515 10.713-1.5 21 .476 1.72 2 2.5.37 40.052 0 80.5a74 74 0 0 0 2 12q-1.237 6.221-1.5 13-2.381 1.84-4-1-.294 2.679-2.5 4 1.015-6.183-3-11.5-2.392.926-4-1 2.487-1.088 1.5-3.5-1.5-3.5-5-5a4.93 4.93 0 0 1-.5-3q5.4 1.829 9 8a4.46 4.46 0 0 0 1.5-2q.435 2.316 2 4l1-6 1 8q.44-9.53 1.5-19a291 291 0 0 1-1.5-19q-1.505 3.653-1.5-1l.5-3q1.333 2.083 1.5-.5-1.473-.571-2-2.5.476-1.721 2-2.5-2.437-11.883-3-24.5-2.615-4.143-1-8.5a18.1 18.1 0 0 1-2-5.5 147 147 0 0 1 2-10.5q-5.037-2.753-1-6.5-2.458-5.082 3-6a19 19 0 0 1 1-6q-.663-5.776-4-10a4.93 4.93 0 0 1-3-.5q1.614-2.59.5-5.5-1-2-2 0a7.3 7.3 0 0 0-2-3q1.518-4.261-3.5-4 .913-5.936-5-6.5l1-1q-3.293-2.06-7-1l4 2a6.98 6.98 0 0 0-3.5 2.5 4.93 4.93 0 0 1-.5-3h-6v9h-10a98.4 98.4 0 0 1-.5 14l-1.5 1.5q2.732 3.685 2 8.5h-8v3h8q1.302 4.846 0 10-27.484 3.386 0 3v8q-4.212.29-8 2v4a23.2 23.2 0 0 0 8 2v5h-3v3h-3q1.113 11.875-4 22.5l1 1.5q4.162-3.161 9-1-1.237 1.329-3 1 .416 4.422-1 8.5 9.53 1.261 16 8.5a6.85 6.85 0 0 0 4 1q-.265 3.721 3 5.5a8.4 8.4 0 0 1-4 .5q-6.486-9.173-18-10.5a26.6 26.6 0 0 0-2-3.5q-2.898 1.53-6 .5-7.097-6.298-5-14.5-1.907.561-3.5-2l-1-9q-2.034-1.32-4.5-1-.715-6.846-3.5-13-3.736-3.313-5.5-6.5 1.198-3.341-3-4l4-4a20.4 20.4 0 0 1-5.5-1.5 88 88 0 0 1-4.5-11q-1.536 2.03-4 2a41.5 41.5 0 0 0-1-8q-10.657.113-14.5-10-.625 1.884-2.5 2a13 13 0 0 1-5.5 2q-4.197-2.965-9.5-4-1.131-3.867 0-8-2.682.428-5-1-4.148-4.912 1-9 6.91-1.715 12.5-6a7.3 7.3 0 0 0 2 3q1.861-2.156 1.5-4.5 9.01.031 17.5-2.5 1.418.608 2 2a8.4 8.4 0 0 0 .5-4q8.016.25 16-.5l-1.5-1.5-5 1a26.6 26.6 0 0 1-3.5-2q8.29.162 17-1.5l-12-1a72.5 72.5 0 0 1 17 0l-4 1q4.947.813 9.5-1.5 12.27.247 23.5 5 3.87-.335 7-2" style="opacity:1"/><path fill="#292e3b" d="M155.5 14.5h2a81 81 0 0 0-5.5 3q-4.82-1.227-10-1a15.3 15.3 0 0 1-4.5 1.5l1 3q-17.11 2.123-34 7a201 201 0 0 0-9 5.5q-1.846 1.725 0 3.5a8.43 8.43 0 0 1-4 .5q-2.022 5.51-8 7a4.45 4.45 0 0 0 2 1.5 12.8 12.8 0 0 0-6 3q1.791 3.986-3 3.5.029 2.34 1 4.5-.195 1.588-1.5 2.5-1.512-7.561-1.5 1-2.55-.24-5 .5 1.425 1.076.5 2.5a12.1 12.1 0 0 0-4.5 3.5q4.248 2.862-1 2.5.081 5.2-4.5 8-2.76-2-1.5.5a28.4 28.4 0 0 0-4.5 7.5 7.3 7.3 0 0 0-2-3q-5.035 1.863.5 2.5-5.2 2.247-11 3-.723 1.512-.5 3.5a26.7 26.7 0 0 0-5.5 6.5q-1.61 2.124 0 4a30.3 30.3 0 0 0-8 5 7.3 7.3 0 0 1 3 2 18.3 18.3 0 0 0-4 7q1.967 3.113-2 4 1.617 1.011 2 3a20.9 20.9 0 0 1-4 5.5 63.4 63.4 0 0 0 1 13.5 558 558 0 0 0-4 44.5 372 372 0 0 1 2-50q-1.425-17.983 4-35.5a3.65 3.65 0 0 1-1-1.5 167.5 167.5 0 0 1 9.5-19l1 4q.978-8.043 8.5-10-.13-4.647 1.5-1 .672-2.586 2.5-2-4.395-1.723-1.5-5l2.5 3a30.3 30.3 0 0 1 7-6.5q-6-1 0-2l-1-1q5.788-5.275 11-13-3.67-1.844-.5-4.5 1.112 1.71 2.5 0a10.25 10.25 0 0 0 1.5-4l1 2q.75-2.75 3.5-3.5a3.65 3.65 0 0 1-1-1.5 23.6 23.6 0 0 0 3.5-3q1.462 3.566 2-1l1 1a57 57 0 0 1 7.5-5q2.955 1.414 4.5-2a3.94 3.94 0 0 0 2 1q6.464-1.578 12-5 3.167.115 6 1a12.14 12.14 0 0 0 3.5-4.5q5.948-.162 11-2.5 11.778.488 23-1z" style="opacity:1"/><path fill="#2d3048" d="M67.5 8.5a21.5 21.5 0 0 0 7 1l1 2-6 1q-2.872-.426-5 1-16.515 2.258-28 14-4.846 2.58-8.5 7-.598-.343-.5-1a97 97 0 0 1 18-15 19.6 19.6 0 0 0 7-4.5 92 92 0 0 0 9-3 128 128 0 0 1-11 1 70 70 0 0 1 17-3.5" style="opacity:1"/><path fill="#070810" d="M358.5 161.5a81 81 0 0 1-2.5-3l-1 1a45.8 45.8 0 0 1-2.5-9 6.85 6.85 0 0 0-4 1q-1.533-.533-2-2a8.4 8.4 0 0 0 4-.5q-3.265-1.779-3-5.5a6.85 6.85 0 0 1-4-1q-6.47-7.239-16-8.5 1.416-4.078 1-8.5 1.763.329 3-1-4.838-2.161-9 1l-1-1.5q5.113-10.625 4-22.5h3v-3h3v-5a23.2 23.2 0 0 1-8-2v-4a23.2 23.2 0 0 1 8-2v-8q-27.484.386 0-3 1.302-5.154 0-10h-8v-3h8q.732-4.815-2-8.5l1.5-1.5q.749-6.982.5-14h10v-9h6a4.93 4.93 0 0 0 .5 3 6.98 6.98 0 0 1 3.5-2.5l-4-2q3.707-1.06 7 1l-1 1q5.913.564 5 6.5 5.018-.261 3.5 4a7.3 7.3 0 0 1 2 3q1-2 2 0 1.114 2.91-.5 5.5 1.422.725 3 .5 3.337 4.224 4 10a19 19 0 0 0-1 6q-5.458.918-3 6-4.037 3.747 1 6.5a147 147 0 0 0-2 10.5 18.1 18.1 0 0 0 2 5.5q-1.615 4.357 1 8.5.563 12.617 3 24.5-1.524.779-2 2.5.527 1.929 2 2.5-.167 2.583-1.5.5l-.5 3q-.005 4.653 1.5 1 .44 9.53 1.5 19a291 291 0 0 0-1.5 19l-1-8-1 6q-1.565-1.684-2-4a4.46 4.46 0 0 1-1.5 2q-3.6-6.171-9-8" style="opacity:1"/><path fill="#7d818f" d="M270.5 6.5q-97.747 1.499-196 1-3.84-.452-7 1a70 70 0 0 0-17 3.5 128 128 0 0 0 11-1 92 92 0 0 1-9 3 19.6 19.6 0 0 1-7 4.5q-.626-1.083-2-1.5 3.57-1.87-1-1Q13.937 32.595 9 65.5q-.315-2.338-1.5-4 9.718-44.967 55-54.5 104-.75 208-.5" style="opacity:.996"/><path fill="#e2e2ec" d="M45.5 18.5a97 97 0 0 0-18 15q-1.5.5-2 2-9.455 11.825-12 27-1.303 3.325-1 7l-2 6q-1.292 43.478-1.5 101a722 722 0 0 1-.5-38q.458-37.548-1-75v-2q1.185 1.662 1.5 4Q13.937 32.595 42.5 16q4.57-.87 1 1 1.374.417 2 1.5" style="opacity:1"/><path fill="#2b303e" d="M378.5 34.5q6.61 8.205 8 19-4.935-5.82-8.5-13 1.847 7.539 5 15 1.183 3.318-.5 6a91.5 91.5 0 0 0-9-24q-1-2-2 0a160 160 0 0 1 7.5 16 1041 1041 0 0 1 1.5 61h-1q-.683-28.998-1.5-58-2.987-10.27-8.5-19-.51-3.268-3-5.5 1.764-2.872 3 .5 1.173-2.745-2-4.5 6.417.895 8.5 7.5.513-3.18 2.5-1" style="opacity:1"/><path fill="#484d5f" d="M64.5 13.5q2.128-1.426 5-1 6.977 2.088 14 2-6.6 1.037-13.5 2l-1-1-5.5 3.5 2 1q-1.13 2.23-2.5.5.926 2.392-1 4-3.195-2.045-1.5 1a39.4 39.4 0 0 1-6 4.5q1.425 1.076.5 2.5-3.053.343-6.5 2.5-5.665 4.554-8 10a48 48 0 0 0-6.5 9.5l-1-2-3.5 5.5q.64 3.192-1.5 6.5-.981-1.794-1.5 0 1.752 2.109-1 3.5 3.567 1.462-1 2 6 1 0 2l1 1q-5.003 13.767-5 28.5a714 714 0 0 1-2 42v-32a360 360 0 0 0 1.5-27q1.097-11.727 5.5-22.5a3.65 3.65 0 0 1-1-1.5q11.004-16.838 22.5-32 1-2 2 0Q54.758 17.95 66.5 14a2.43 2.43 0 0 0-2-.5" style="opacity:1"/><path fill="#cbcfd9" d="M35.5 29.5q1.61 1.125.5 3a161 161 0 0 1-11 13q-5.69 16.74-7.5 34-1.974-23.314 10.5-43a73.5 73.5 0 0 1 7.5-7" style="opacity:1"/><path fill="#221556" d="M234.5 52.5q13.537 4.02 25 12 .512 1.257 2 1 6.336 5.205 13 10.5 2.946 2.176 4 5.5a17.9 17.9 0 0 0-6-4 24.2 24.2 0 0 0-9-7q-5.77-4.64-13-7-3.53-2.765-8-4-5.025-1.505-10-3-.166-.925-1-1.5-24.668-3.729-50-1.5a67 67 0 0 0 9.5-3l1 1a7.25 7.25 0 0 1 2.5-2q2.817.184 5.5 0 3.406 2.901 6 0l5 2q8.673-1.413 18 2a13 13 0 0 1 5.5-1" style="opacity:1"/><path fill="#464b5b" d="M382.5 61.5a421 421 0 0 0-1 41v12h-1a1041 1041 0 0 0-1.5-61 160 160 0 0 0-7.5-16q1-2 2 0a91.5 91.5 0 0 1 9 24" style="opacity:1"/><path fill="#2c2d46" d="M25.5 35.5q.814.09 1 1-7.556 11.695-11 25a2.43 2.43 0 0 0-.5-2q-.348 1.856-1.5 3 2.545-15.175 12-27" style="opacity:1"/><path fill="#1a193b" d="M259.5 64.5q-11.463-7.98-25-12-2.607-2.9-5.5-1a187 187 0 0 0-17-3q-11.912.157-23 0-3.29 1.91-6.5 1-2.974.472-4 3-6.792 1.746-13.5 6-2.81-.884-5 2l-3-1q-1.79 3.158-5 5h-3a21.6 21.6 0 0 1-5.5 5.5l1 1q-2.763-.102-5 .5a89.7 89.7 0 0 0-17 14 5.58 5.58 0 0 1 1-3 214 214 0 0 1 18-17 48.6 48.6 0 0 1 6.5-5l1 1q23.49-14.086 50.5-15 14.315.396 31 2.5 6.807.768 12.5 4.5 10 .106 17.5 7.5l-2 1q1.129 1.005 1 2.5" style="opacity:1"/><path fill="#51556b" d="m36.5 27.5-1 2a73.5 73.5 0 0 0-7.5 7q-12.474 19.686-10.5 43v14l-2 9v-41q3.444-13.305 11-25-.186-.91-1-1 .5-1.5 2-2-.098.657.5 1 3.654-4.42 8.5-7" style="opacity:1"/><path fill="#341e78" d="M232.5 56.5a52 52 0 0 0-7-1q-22.185-2.467-44 2-.925-.165-1.5-1-8.278 1.016-14.5 6.5-6.958 1.104-11.5 6.5-2.934-.426-6.5 0 2.851-3.444 7-5.5 8.115-2.362 15-7 6.384-1.051 12-3.5 25.332-2.229 50 1.5.834.575 1 1.5" style="opacity:1"/><path fill="#2d2065" d="M178.5 52.5q1.298.096 3 1-5.616 2.449-12 3.5-6.885 4.638-15 7-4.149 2.056-7 5.5a5.73 5.73 0 0 0-1 3 140 140 0 0 0-13 8.5l1 1a109 109 0 0 0-9 8.5q-.658.098-1-.5a451 451 0 0 1 15-18.5q2.237-.602 5-.5l-1-1q3.25-2.25 5.5-5.5h3q3.21-1.842 5-5l3 1q2.19-2.884 5-2 6.708-4.254 13.5-6" style="opacity:1"/><path fill="#ef86fc" d="M213.5 56.5q-6.52.663-1 2.5a20.4 20.4 0 0 0-5.5 1.5q-6.05-.535-7.5 6a10.26 10.26 0 0 0 4 1.5q9.487.75 19 .5a46.8 46.8 0 0 1 8 3q-33.751-6.928-64 9.5a78.2 78.2 0 0 0-14 11.5q-10.903 9.78-17.5 23a4.93 4.93 0 0 0-.5 3q-1 0-1 1-1.812-1.1-4-1 .22 3.663-2.5 2a271 271 0 0 1-8.5 12.5q-3.835 1.678-7.5.5-1.28 2.437-3 1a1052 1052 0 0 0-22.5 7.5q1.26 2.5-1.5.5-.538 4.567-2 1-2.23 1.13-.5 2.5-3.861-.248-7 3a14.8 14.8 0 0 0-3 4.5q-9.092 4.388-13.5 15l-1-1q-.296 3.542-3.5 5 2 1.5 0 3-2.942 1.617-5 4l1.5-6a46.2 46.2 0 0 0 6-10 59.6 59.6 0 0 0 10.5-12q4.632-4.651 10-8a391 391 0 0 1 24-10.5q1.565-2.964 4-1.5a133 133 0 0 1 13-2.5q.834-.575 1-1.5a73.4 73.4 0 0 1 6-16q5.608-7.272 9-16 9.478-5.48 15-15a65.3 65.3 0 0 1 9-6 67 67 0 0 1 5.5 2 48.6 48.6 0 0 1 7.5-8.5q5.489.055 9.5-3.5 1.903.175 4 1l4.5-3.5a214 214 0 0 0 19-5.5q3.166-1.863 6 0" style="opacity:1"/><path fill="#d56ffc" d="M242.5 59.5q4.47 1.235 8 4-2.951-.36-5.5 1-4.807-3.645-8.5 1.5l1 1q-2.26 1.256-1.5 3.5a101 101 0 0 0 7.5 5l-9-2-4-2a46.8 46.8 0 0 0-8-3q1.647-1.65.5-4-1 6-2 0-.981 1.794-1.5 0a19.7 19.7 0 0 1 5.5-5q4.778 1.36 9.5-1 3.626 5.068 8 1" style="opacity:1"/><path fill="#eca2fb" d="M225.5 55.5a97 97 0 0 1-6.5 2q-2.355-.255-5.5-1-2.834-1.863-6 0-1.983.255-3.5-1-2.159 2.27-4.5 1a237 237 0 0 0-25.5 7 58.2 58.2 0 0 0-14.5 9.5 4.93 4.93 0 0 1-3 .5q.961-1.473 2-3-.186-.91-1-1a113.6 113.6 0 0 1 24-12q21.815-4.467 44-2" style="opacity:1"/><path fill="#e57bfc" d="M225.5 55.5q3.541.26 7 1 4.975 1.495 10 3-4.374 4.068-8-1-4.722 2.36-9.5 1a19.7 19.7 0 0 0-5.5 5q.519 1.794 1.5 0 1 6 2 0 1.147 2.35-.5 4-9.513.25-19-.5a10.26 10.26 0 0 1-4-1.5q1.45-6.535 7.5-6a20.4 20.4 0 0 1 5.5-1.5q-5.52-1.837 1-2.5 3.145.745 5.5 1a97 97 0 0 0 6.5-2" style="opacity:1"/><path fill="#4d25a2" d="M181.5 57.5a113.6 113.6 0 0 0-24 12l-6 3h-5a5.73 5.73 0 0 1 1-3q3.566-.426 6.5 0 4.542-5.396 11.5-6.5 6.222-5.484 14.5-6.5.575.835 1.5 1" style="opacity:1"/><path fill="#c25ffb" d="M250.5 63.5q7.23 2.36 13 7-2.16-1.294-4 0-1.861-3.966-6-2.5l1 1a11.3 11.3 0 0 0-1.5 3.5q-.224-4.167-2.5-1.5 1.204 2.983 1.5 6.5 2.777-.014 5.5 2.5-3.179.513-1 2.5a120 120 0 0 1-13-7 101 101 0 0 1-7.5-5q-.76-2.244 1.5-3.5l-1-1q3.693-5.145 8.5-1.5 2.549-1.36 5.5-1" style="opacity:1"/><path fill="#606478" d="M64.5 13.5a2.43 2.43 0 0 1 2 .5Q54.758 17.95 49 28.5q-1-2-2 0-11.496 15.162-22.5 32 .315.879 1 1.5-4.403 10.773-5.5 22.5a360 360 0 0 1-1.5 27q-2.655-33.06 9-64 3.028-4.942 7.5-9l1-4a58 58 0 0 1 6.5-9.5q-3.055.724-6 2.5 11.485-11.742 28-14" style="opacity:1"/><path fill="#f492fc" d="M207.5 56.5a214 214 0 0 1-19 5.5l-4.5 3.5q-2.097-.825-4-1-4.011 3.555-9.5 3.5a48.6 48.6 0 0 0-7.5 8.5 67 67 0 0 0-5.5-2 65.3 65.3 0 0 0-9 6q-5.522 9.52-15 15a5.73 5.73 0 0 1 1-3 263 263 0 0 1 13-14.5q4.959-1.479 9-4.5a4.93 4.93 0 0 0 3-.5 58.2 58.2 0 0 1 14.5-9.5 237 237 0 0 1 25.5-7q2.341 1.27 4.5-1 1.517 1.255 3.5 1" style="opacity:1"/><path fill="#ac52fa" d="M263.5 70.5a24.2 24.2 0 0 1 9 7 19.2 19.2 0 0 0-6-1 4.93 4.93 0 0 1-.5 3q-.981-1.794-1.5 0 3.237 2.289-1 4.5 3.396 2.975 7.5 7.5 1.207-3.601 2.5.5-1.58 2.082-.5 4.5 3.03 3.075 4.5 7a127 127 0 0 1-8.5-10 202 202 0 0 1-12.5-11q-2.179-1.987 1-2.5-2.723-2.514-5.5-2.5-.296-3.517-1.5-6.5 2.276-2.667 2.5 1.5a11.3 11.3 0 0 1 1.5-3.5l-1-1q4.139-1.466 6 2.5 1.84-1.294 4 0" style="opacity:1"/><path fill="#5f24ac" d="m230.5 71.5 4 2q-5.758 1.005-11.5-1-11.522 1.041-22.5 0-15.25.745-27.5 7-10.671 5.853-20 14-.598-.342-.5-1a78.2 78.2 0 0 1 14-11.5q30.249-16.428 64-9.5" style="opacity:1"/><path fill="#101127" d="M233.5 46.5q10.183.078 18 7 5.303 1.035 9.5 4a13 13 0 0 0 5.5-2q2.1 3.658-2 5.5 5.166.165 7 5 4.719.165 3 4 2.098.892 4-.5a33.3 33.3 0 0 0 8 8 43 43 0 0 1 5 9.5q.897 1.952 3 2.5 2.048 3.081 1 6-1.314.195-2-1 1.635-1.663 0-3-1.663 1.635-3 0a95 95 0 0 1-3.5-10q-2.19-2.884-5-2-.926-1.424.5-2.5a4.93 4.93 0 0 0-3-.5q.255-1.983-1-3.5-2.448-1.965-5-1.5a28.6 28.6 0 0 0-7.5-8q-1.665 2.306-4.5 2-1.488.257-2-1 .129-1.495-1-2.5l2-1q-7.5-7.394-17.5-7.5-5.693-3.732-12.5-4.5-16.685-2.104-31-2.5-27.01.913-50.5 15l-1-1a48.6 48.6 0 0 0-6.5 5q-.034-3.15 2-5.5-.105-1.148-1-1.5.43-2.43 3-3 3.486.566 2 3 1.298 1.625 3 .5a3.65 3.65 0 0 1-1-1.5 734 734 0 0 1 11-8 111.6 111.6 0 0 0 25.5-4l1 1a99 99 0 0 0 11-3q2.49-.265 5 2 3.273-3.384 7 0a38 38 0 0 0 6-1 99 99 0 0 0 11 3l1-2q2.549 1.36 5.5 1" style="opacity:1"/><path fill="#1d1746" d="M234.5 52.5a13 13 0 0 0-5.5 1q-9.327-3.413-18-2l-5-2q-2.594 2.901-6 0a41 41 0 0 1-5.5 0 7.25 7.25 0 0 0-2.5 2l-1-1a67 67 0 0 1-9.5 3q-1.702-.904-3-1 1.026-2.528 4-3 3.21.91 6.5-1 11.088.157 23 0a187 187 0 0 1 17 3q2.893-1.9 5.5 1" style="opacity:1"/><path fill="#5d6274" d="M386.5 53.5q2.284 4.695 2 10-4.91-14.262-4 1 .869 14.494 1.5 29l1-17q.75 25.995.5 52a539 539 0 0 0-1.5 33 748 748 0 0 0-2-50l-1 78q-.265-5.784-1.5-11v-76q1.185 1.663 1.5 4a355 355 0 0 0-.5-45q1.683-2.682.5-6-3.153-7.461-5-15 3.565 7.18 8.5 13" style="opacity:1"/><path fill="#262054" d="M139.5 71.5a451 451 0 0 0-15 18.5q.342.598 1 .5v1a24 24 0 0 0-5 3.5q-1.686 5.512-6.5 10.5-.196 4.307-3.5 7a6.85 6.85 0 0 1 1 4q-2.17 1.683-3 4.5-5.538 3.233-11 2.5a83 83 0 0 0 10-6.5q-1.001-5.48 3.5-9.5l1-5a112.7 112.7 0 0 0 10.5-17 89.7 89.7 0 0 1 17-14" style="opacity:1"/><path fill="#1c1f34" d="M141.5 65.5a214 214 0 0 0-18 17 5.58 5.58 0 0 0-1 3q-1.762-.329-3 1-.702 2.45-3 3.5l1 1-10 10 1 1-3.5 9.5-1-1q-1.317 4.073-4.5 7a979 979 0 0 0-33 13q3.948-5.148 0-10.5 5.413-.039 10-2.5a23.8 23.8 0 0 0 9 1q.715-3.74 4-6 4.803-.82 9-3a46 46 0 0 0 4-10l4-4a4.46 4.46 0 0 1 1.5 2 26.9 26.9 0 0 0 3.5-6q-4.744-5.56 2-7-.238-4.03 2.5-7l1 3q5.674-2.715 9-8 5.583 1.953 7-4l1 1a16.46 16.46 0 0 1 7.5-4" style="opacity:1"/><path fill="#868a9a" d="M18.5 111.5v84q-1.674-6.932-1-30v-86q1.81-17.26 7.5-34a161 161 0 0 0 11-13q1.11-1.875-.5-3l1-2q2.945-1.776 6-2.5a58 58 0 0 0-6.5 9.5l-1 4q-4.472 4.058-7.5 9-11.655 30.94-9 64" style="opacity:1"/><path fill="#9e46f7" d="M272.5 77.5a17.9 17.9 0 0 1 6 4l6 7a11.74 11.74 0 0 1 3 5 73.6 73.6 0 0 1-7.5-7l-2 4q-.636-5.535-2.5-.5a6.54 6.54 0 0 0 3 3l-2 1q2.075 3.185 5 3-2.184.634-1.5 2.5l1-1 3.5 3.5-1 1q3.626 3.023 5 6-2.926 4.86 2 9a3.94 3.94 0 0 0-1 2 57 57 0 0 1 1.5 6.5q.75 1.75 2.5 2.5.779 11.39 0 21.5a42.3 42.3 0 0 0 7 5 20.7 20.7 0 0 1-5-1q-2.959-1.96-5-5 1.413-15.643-4-31-.37-1.82-2-2l-4-6a33 33 0 0 0-3-7q-1.47-3.925-4.5-7-1.08-2.418.5-4.5-1.293-4.101-2.5-.5-4.104-4.525-7.5-7.5 4.237-2.211 1-4.5.519-1.794 1.5 0a4.93 4.93 0 0 0 .5-3 19.2 19.2 0 0 1 6 1" style="opacity:1"/><path fill="#5230a0" d="M146.5 72.5a2.43 2.43 0 0 1-.5 2 577 577 0 0 0-20.5 19v-3a109 109 0 0 1 9-8.5l-1-1a140 140 0 0 1 13-8.5" style="opacity:1"/><path fill="#fbd1fe" d="M157.5 69.5q.814.09 1 1a184 184 0 0 0-2 3q-4.041 3.021-9 4.5a263 263 0 0 0-13 14.5q.098-.658-.5-1-1.062 1.32-2.5 2a127 127 0 0 1 8.5-11 160 160 0 0 1 11.5-10z" style="opacity:1"/><path fill="#9498a2" d="M388.5 63.5q1.728 36.994 0 72h-1v-7q.25-26.005-.5-52l-1 17q-.631-14.506-1.5-29-.91-15.262 4-1" style="opacity:.733"/><path fill="#18133c" d="M243.5 86.5a55.3 55.3 0 0 1-10-3h-8q-3.272-2.277-7.5-3-3.698 1.383-7 0-2.729 3.054-5.5.5a16.25 16.25 0 0 0-8 0q-4.374 3.53-9.5 2.5a60.8 60.8 0 0 1-17.5 8.5 18.8 18.8 0 0 0-4.5 5.5l-1-1a11.4 11.4 0 0 1-3.5 1.5 102 102 0 0 1-11.5 12.5 297 297 0 0 0-13 30l-1-1q-.838 5.685-6.5 9-6.569 2.532-11.5 6-1-2-2 0a2.43 2.43 0 0 1-.5-2q-.197-1.314 1-2 4.108-.58 7-3 5-1.711 9-5.5l-1-1a58 58 0 0 0 5-13 9.6 9.6 0 0 1 3-3l-1-1q6.292-14.607 19-24a39.8 39.8 0 0 0 7-8q8.731-6.79 18-10 9.921-2.8 21-2.5a4.93 4.93 0 0 1 .5-3q4 2 8 0a45.5 45.5 0 0 1 9.5 3q3.156-1.247 6-1-.586 1.828 2 2.5l12 2-1 1q2.428.354 3 2.5" style="opacity:1"/><path fill="#404451" d="M7.5 63.5a1468 1468 0 0 1 1 75l-2-4q-.496-35.759 1-71" style="opacity:1"/><path fill="#0f1024" d="M225.5 83.5h8q1.702 1.462 3 3.5 7.131 1.818 13 6a48.6 48.6 0 0 0 5 6.5q-1.593 3.084 1 6a7.25 7.25 0 0 1-2 2.5 103 103 0 0 0-18 0q-7.983 2.497-16 5-1.255 1.517-1 3.5-2.712-.013-5 1.5a19.8 19.8 0 0 1-5 5.5 55 55 0 0 0-2 7q-.936-.626-1-2a53.5 53.5 0 0 0 2-10q6.968.032 7-7 3.013-3.393 7-1 3.779-.77 6-4a241 241 0 0 0 23-4 75 75 0 0 1-15-6.5 34.2 34.2 0 0 0 8-1.5q-2.557-2.705-5.5-2-9.88-2.025-18.5-7 3.537.371 6-2" style="opacity:1"/><path fill="#1f1153" d="M272.5 108.5q-6.38-1.628-8.5-8a57.7 57.7 0 0 1-9.5-8.5l-11-5.5q-.572-2.146-3-2.5l1-1-12-2q-2.586-.672-2-2.5-2.844-.247-6 1a45.5 45.5 0 0 0-9.5-3q-4 2-8 0a4.93 4.93 0 0 0-.5 3q-11.079-.3-21 2.5-9.269 3.21-18 10a39.8 39.8 0 0 1-7 8q-12.708 9.393-19 24l1 1a9.6 9.6 0 0 0-3 3 58 58 0 0 1-5 13l1 1q-4 3.789-9 5.5a4.93 4.93 0 0 1 .5-3l1 1q1.05-2.298 3.5-3a51 51 0 0 0 2-6 3.65 3.65 0 0 0-1-1.5q2.744-.41 4.5-2.5a47.6 47.6 0 0 1 6-16 158 158 0 0 0 9.5-14q12.029-9.535 24-19 1.818-1.095 3-3 5.551-.705 10-4 24.457-4.134 48 1.5a379 379 0 0 0 23 12q3.25 5.25 8.5 8.5a108 108 0 0 1 6.5 10" style="opacity:1"/><path fill="#101320" d="M219.5 85.5q8.62 4.975 18.5 7 2.943-.705 5.5 2a34.2 34.2 0 0 1-8 1.5 75 75 0 0 0 15 6.5 241 241 0 0 1-23 4q-2.221 3.23-6 4-3.987-2.393-7 1-.032 7.032-7 7a53.5 53.5 0 0 1-2 10q.064 1.374 1 2-.674 5.773-4 10.5a10 10 0 0 0 2.5 4.5q1.197 2.639-.5 5-6.143 3.525-10 9.5a10.1 10.1 0 0 1-6 1.5q-.779 8.282-9 8 .305 2.835-2 4.5a111 111 0 0 0-13 .5q-4.466-.207-6-4.5-3.52-1.068-6-3.5-1.783-1.393-4-1-1.731-7.163-7.5-5a21 21 0 0 1-2.5-6q-1.783-1.393-4-1-.013-2.712 1.5-5 1.61 1.17 3.5-.5-1.392-.582-2-2a61.4 61.4 0 0 0 5.5-7.5 40.4 40.4 0 0 1 3-12q1.362-2.909 4.5-3 .714-3.74 4-6-1.71-2.367-1.5-5a178.3 178.3 0 0 1 32-24l3 1q3.1-3.21 7-2 8.661-2.867 18-4 1.695.921 4 0 2.064.275 2.5 2" style="opacity:1"/><path fill="#1e1f40" d="M122.5 85.5a112.7 112.7 0 0 1-10.5 17l-1 5q-4.501 4.02-3.5 9.5a83 83 0 0 1-10 6.5q-34.65 7.559-53.5 37a474 474 0 0 1-9.5 21q-.925.166-1.5 1-4.704 19.647-4 40a35 35 0 0 0 3.5 8.5l-2 1q2.578 5.265 2.5 11.5 1.752 4.03 3.5 8a31 31 0 0 0-4.5-3l-1-10a6.54 6.54 0 0 0-3-3 552 552 0 0 1-2.5-34q.093-5.755 3-10.5-4-1 0-2-2.013-3.023-1.5-6.5a3.65 3.65 0 0 1 1.5-1 10.26 10.26 0 0 1 1.5 4q.6-19.733 14.5-31.5-.825-2.097-1-4a45.7 45.7 0 0 1 8.5-7.5l1 1a74 74 0 0 1 6.5-8q1.388-1.712 2.5 0l3-4q1.66 1.818 1.5-1a979 979 0 0 1 33-13q3.183-2.927 4.5-7l1 1 3.5-9.5-1-1 10-10-1-1q2.298-1.05 3-3.5 1.238-1.329 3-1" style="opacity:1"/><path fill="#100b2e" d="M295.5 95.5q.465 1.857 1.5 0 4.396 5.37 6 12 .861 2.988 3.5 4.5-1.818 7.311 0 15.5 1.033 2.779 4 3.5l-1 3q3.334 3.666 8 2 7.296 4.633 15 6a24.8 24.8 0 0 1 8 5q-2.206 5.153 5 4.5a20.7 20.7 0 0 1-1 5q-3.154-2.22 0-3.5-8.393-2.44-16-7.5-10.314-4.54-21-5.5a366 366 0 0 1-3-9.5q.596-10.649-4.5-20a71.3 71.3 0 0 1-6-12 34.4 34.4 0 0 1-6.5-9 5.6 5.6 0 0 0-3-1l-6-7q-1.054-3.324-4-5.5-6.664-5.295-13-10.5 2.835.306 4.5-2a28.6 28.6 0 0 1 7.5 8q2.552-.465 5 1.5 1.255 1.517 1 3.5a4.93 4.93 0 0 1 3 .5q-1.426 1.076-.5 2.5 2.81-.884 5 2a95 95 0 0 0 3.5 10q1.337 1.635 3 0 1.635 1.337 0 3 .686 1.195 2 1" style="opacity:1"/><path fill="#130f32" d="M233.5 83.5a55.3 55.3 0 0 0 10 3q3.117 3.825 8 5.5 1.255 1.517 1 3.5 5 0 5 5 1.983-.255 3.5 1 4.77 7.946 9.5 14.5l-1 1q4.78 7.053 7 15.5-2.685 4.309-3 9.5 4.568 4.872 6.5 11.5a87 87 0 0 0 5.5 3q-6.108.332-10.5-5a206 206 0 0 1-11.5 13q4.72-6.424 8-14a3.65 3.65 0 0 0-1-1.5 100 100 0 0 1 3-17.5l-1-2q-2.254.828-5 0-.91-3.864-3.5-7a12.47 12.47 0 0 0-5.5-3q-5.887-7.027-15.5-7-2.487.263-4 2-5.42-.894-11.5-.5-3.903 3.234-8 3.5 1.078-3.582 5-4.5 8.836-3.164 17.5-3.5a91 91 0 0 1 15.5 4q3.121 4.872 8.5 7 .463-2.837-2.5-4a3.65 3.65 0 0 1 1-1.5 20.4 20.4 0 0 1-1.5-5.5q-3.966-5.517-8.5-10a48.6 48.6 0 0 1-5-6.5q-5.869-4.182-13-6-1.298-2.038-3-3.5" style="opacity:1"/><path fill="#a2a6b3" d="M382.5 61.5a355 355 0 0 1 .5 45q-.315-2.337-1.5-4a421 421 0 0 1 1-41" style="opacity:1"/><path fill="#362479" d="M125.5 91.5v2a112 112 0 0 0-7 8.5l1 1q-5.544 5.947-8 13.5a6.85 6.85 0 0 0-1-4q3.304-2.693 3.5-7 4.814-4.988 6.5-10.5a24 24 0 0 1 5-3.5" style="opacity:1"/><path fill="#19084f" d="M284.5 88.5a5.6 5.6 0 0 1 3 1 34.4 34.4 0 0 0 6.5 9 71.3 71.3 0 0 0 6 12q5.096 9.351 4.5 20-4.03-20.558-17-37a11.74 11.74 0 0 0-3-5" style="opacity:1"/><path fill="#f3a4fc" d="M133.5 95.5q-3.392 8.728-9 16 1.995-9.475 9-16" style="opacity:1"/><path fill="#9960d9" d="M146.5 72.5h5a160 160 0 0 0-11.5 10 127 127 0 0 0-8.5 11l-6 7a105 105 0 0 0-11 21 81 81 0 0 0-2.5 3 159.4 159.4 0 0 1 13.5-31 577 577 0 0 1 20.5-19 2.43 2.43 0 0 0 .5-2" style="opacity:1"/><path fill="#5b21ad" d="m280.5 110.5 4 6a103.1 103.1 0 0 1 6 33q2.041 3.04 5 5a22.6 22.6 0 0 1-8-4q1.018-3.537 1-6.5-2.613-10.756-6-19.5a6073 6073 0 0 1-9-20 4.93 4.93 0 0 1 3 .5l-1 1a31.5 31.5 0 0 0 5 4.5" style="opacity:1"/><path fill="#545868" d="M12.5 69.5q.446 29.55-1 59a703 703 0 0 1-1-53z" style="opacity:1"/><path fill="#843af6" d="M287.5 93.5q12.97 16.442 17 37a39.7 39.7 0 0 0 1 11q8.059 3.118 17 4 5.118.813 9 4a21.3 21.3 0 0 1-9-1.5q1.794-.981 0-1.5l-3 2a4.46 4.46 0 0 1-1.5-2q-3.753.912-6 4l-1.5-.5 3-3q-2.316-1.78-5-1 3.601 1.207-.5 2.5l-1-1a17.8 17.8 0 0 1-4.5 5.5 77 77 0 0 0 11 4.5 59.5 59.5 0 0 1-13-2 42.3 42.3 0 0 1-7-5q.779-10.11 0-21.5-1.75-.75-2.5-2.5a57 57 0 0 0-1.5-6.5 3.94 3.94 0 0 1 1-2q-4.926-4.14-2-9-1.374-2.977-5-6l1-1-3.5-3.5-1 1q-.684-1.866 1.5-2.5-2.925.185-5-3l2-1a6.54 6.54 0 0 1-3-3q1.864-5.035 2.5.5l2-4a73.6 73.6 0 0 0 7.5 7" style="opacity:1"/><path fill="#dc77fc" d="M133.5 119.5a91 91 0 0 0-5.5 18 27.2 27.2 0 0 1-3.5 5q-44.878-1.083-64 39-.648 1.815-2 3a55.5 55.5 0 0 1 3-9.5l-1-.5a67 67 0 0 1-3.5 5l-1-2a10.8 10.8 0 0 1-2.5 3q.315.879 1 1.5-8.53 11.067-14 25.5 1.22-14.892 8-28 2.058-2.383 5-4 2-1.5 0-3 3.204-1.458 3.5-5l1 1q4.408-10.612 13.5-15a14.8 14.8 0 0 1 3-4.5q3.139-3.248 7-3-1.73-1.37.5-2.5 1.462 3.567 2-1 2.76 2 1.5-.5a1052 1052 0 0 1 22.5-7.5q1.72 1.437 3-1 3.665 1.178 7.5-.5a271 271 0 0 0 8.5-12.5q2.72 1.663 2.5-2 2.188-.1 4 1" style="opacity:1"/><path fill="#c57af4" d="M284.5 116.5q1.63.18 2 2 5.413 15.357 4 31a103.1 103.1 0 0 0-6-33" style="opacity:1"/><path fill="#fce4fe" d="M134.5 92.5a5.73 5.73 0 0 0-1 3q-7.005 6.525-9 16a73.4 73.4 0 0 0-6 16q-1.63-.18-2-2l2.5-10a74.4 74.4 0 0 0 6.5-15l6-7q1.438-.68 2.5-2 .598.342.5 1" style="opacity:1"/><path fill="#be5bfb" d="M257.5 125.5q5.54 4.058 6 11-1.356-1.064-1-3h-3q-1.803-5.27-5 .5l2 10a19.6 19.6 0 0 1-2 3.5q2.328-11.346-8-16-.91.186-1 1l-2-1q-1.663-1.185-4-1.5 2-1.5 0-3 1.684-1.565 4-2l-2-1q.723-2.19 3.5-4.5a323 323 0 0 1 12.5 6" style="opacity:1"/><path fill="#8b4dd3" d="M287.5 150.5q-.926-.166-1.5-1a322 322 0 0 0-3.5-25q3.387 8.744 6 19.5.018 2.963-1 6.5" style="opacity:1"/><path fill="#cf6dfb" d="M243.5 118.5q8.695.348 14 7a323 323 0 0 0-12.5-6q-2.777 2.31-3.5 4.5l2 1q-2.316.434-4 2 2 1.5 0 3 2.337.315 4 1.5-13 0-13 13a34.8 34.8 0 0 1-1-9.5 12.4 12.4 0 0 0 4-2.5 23.6 23.6 0 0 0-3.5-1 9.5 9.5 0 0 1-2.5 1.5q-3.355 5.433-5 10.5-1.851 4.709 0 9a45 45 0 0 0-9 7q-1 0-1-1a73.5 73.5 0 0 1 7-7.5q-2.042-2.377-2-5.5.975.456 2 1 1.291-9.062 8.5-16a57.6 57.6 0 0 1 3-8q6.167-2.808 12.5-4" style="opacity:1"/><path fill="#4a2899" d="M125.5 93.5a159.4 159.4 0 0 0-13.5 31 81 81 0 0 1 2.5-3q.314 3.321-2.5 5a354 354 0 0 0-20.5 6 101.2 101.2 0 0 0-21 10q-1.335-1.293-3-1.5-3.003 3.09-4.5 6.5a3.65 3.65 0 0 0-1.5-1 513 513 0 0 1-4 3 2.43 2.43 0 0 1 .5-2q21.774-19.75 51.5-23a54 54 0 0 1 2-8q2.456-7.553 8-13.5l-1-1a112 112 0 0 1 7-8.5" style="opacity:1"/><path fill="#e99bfa" d="M125.5 100.5a74.4 74.4 0 0 1-6.5 15l-2.5 10q.37 1.82 2 2-.166.925-1 1.5a133 133 0 0 0-13 2.5q-2.435-1.464-4 1.5a391 391 0 0 0-24 10.5 311 311 0 0 1 4-3l13-6.5q-.816-1.076-2-1.5a354 354 0 0 1 20.5-6q2.814-1.679 2.5-5a105 105 0 0 1 11-21" style="opacity:1"/><path fill="#381388" d="m234.5 73.5 9 2a120 120 0 0 0 13 7 202 202 0 0 0 12.5 11 127 127 0 0 0 8.5 10 33 33 0 0 1 3 7 31.5 31.5 0 0 1-5-4.5l1-1a4.93 4.93 0 0 0-3-.5 6073 6073 0 0 0 9 20 322 322 0 0 1 3.5 25q.574.834 1.5 1a22.6 22.6 0 0 0 8 4 20.7 20.7 0 0 0 5 1 59.5 59.5 0 0 0 13 2q12.94 3.727 23 13a102 102 0 0 0 7.5 10 179 179 0 0 1 8.5 22q.72 7.983 1 16a112 112 0 0 1-2-5q-1.025.544-2 1-1.875-7.483-1.5-15a149.5 149.5 0 0 1-10-22q-1.48 1.006-3.5 0-11.742-18.135-34-18.5a163 163 0 0 0-16-6.5 128 128 0 0 0-3.5-24 90 90 0 0 1-6-16q-.565-2.163-2.5-3v-1a108 108 0 0 0-6.5-10q-5.25-3.25-8.5-8.5a379 379 0 0 1-23-12q-23.543-5.634-48-1.5-4.449 3.295-10 4-1.182 1.905-3 3 .098-.658-.5-1-26.496 11.984-37 38-.417-1.373-1.5-2a4.93 4.93 0 0 1 .5-3q6.597-13.22 17.5-23-.098.658.5 1 9.329-8.147 20-14 12.25-6.255 27.5-7 10.978 1.041 22.5 0 5.742 2.005 11.5 1" style="opacity:1"/><path fill="#260f68" d="M264.5 129.5v7h-1q-.46-6.942-6-11-5.305-6.652-14-7h-10q-4.427-.32-8 2-.129-1.494 1-2.5 14.144-5.155 30 3a89 89 0 0 0 8 8.5" style="opacity:1"/><path fill="#201059" d="M272.5 109.5q1.935.837 2.5 3a90 90 0 0 0 6 16 128 128 0 0 1 3.5 24q-3.564-1.839-4.5-6a280 280 0 0 0-7.5-37" style="opacity:1"/><path fill="#d77df7" d="M233.5 118.5h10q-6.333 1.192-12.5 4a57.6 57.6 0 0 0-3 8q-7.209 6.938-8.5 16a44 44 0 0 0-2-1q-2.222-19.332 16-27" style="opacity:1"/><path fill="#4718a3" d="m243.5 131.5 2 1q5.726 2.184 5 8.5-1.07 13.05-14 10-3.834-1.582-5-5.5 0-1-1-1 0-13 13-13" style="opacity:1"/><path fill="#9f46fa" d="M263.5 136.5a72.4 72.4 0 0 1-.5 12q-2.964 1.565-1.5 4-3.107 2.214-3 6-.5 1.5-2 2a349 349 0 0 1-11 4.5q-3.63 1.03-6.5-1.5-1-1.5 0-3a456 456 0 0 0 4-3q1.66 1.818 1.5-1 3.432-.661 7-4a186 186 0 0 0 2-3q1.257-.513 1-2a19.6 19.6 0 0 0 2-3.5l-2-10q3.197-5.77 5-.5h3q-.356 1.936 1 3" style="opacity:1"/><path fill="#fbcbfe" d="M224.5 125.5a2.43 2.43 0 0 1 2 .5q-5.124 6-7.5 13.5-.206-8.099 5.5-14" style="opacity:1"/><path fill="#c369f8" d="M245.5 132.5q.09-.814 1-1 10.328 4.654 8 16 .257 1.487-1 2h-2q2.622-2.49 1.5-6a30.1 30.1 0 0 1-4.5 7.5q.343.598 1 .5-8.74 6.306-17-1a3.65 3.65 0 0 0-1.5 1q.42-3.344.5-6 1.166 3.918 5 5.5 12.93 3.05 14-10 .726-6.316-5-8.5" style="opacity:1"/><path fill="#2e0f7a" d="M239.5 137.5q12.093.909 3 8.5-9.673 1.585-7-7.5 2.398.401 4-1" style="opacity:1"/><path fill="#1a1046" d="M258.5 119.5q5.214 3.389 6 10a89 89 0 0 1-8-8.5q-15.856-8.155-30-3-1.129 1.006-1 2.5-2.352-1.46-5-.5-13.746 12.723-8.5 30.5a83.4 83.4 0 0 1-10.5 14.5 12.9 12.9 0 0 1-5 .5q1.69-6.966 8-7.5a11.14 11.14 0 0 1 3.5-5.5 45 45 0 0 0-.5-7 250 250 0 0 1 4.5-18 100 100 0 0 0 7.5-10q4.097-.266 8-3.5 6.08-.394 11.5.5 1.513-1.737 4-2 9.613-.027 15.5 7" style="opacity:1"/><path fill="#efb7fc" d="M91.5 132.5q1.185.424 2 1.5l-13 6.5q-.595-1.538-2-.5l-14 10q-20.227 20.203-25 48.5 0-1-1-1 3.24-24.477 19.5-43a209 209 0 0 1 12.5-12 101.2 101.2 0 0 1 21-10" style="opacity:1"/><path fill="#bb59fc" d="M230.5 144.5q1 0 1 1-.08 2.656-.5 6a3.65 3.65 0 0 1 1.5-1q8.26 7.306 17 1 1.5-.5 2-2h2q-.961 1.473-2 3-3.568 3.339-7 4-3.107-1.08-7 0-2.45-.702-3.5-3-.939 3.737-2.5 0a15 15 0 0 1-3.5 3l-1-2q-1.79 2.218-1.5 4-2.279.564-5 0 .933-2.753 4-3.5-.816-1.076-2-1.5v-1q-1.851-4.291 0-9 1.645-5.067 5-10.5a9.5 9.5 0 0 0 2.5-1.5q1.703.34 3.5 1a12.4 12.4 0 0 1-4 2.5 34.8 34.8 0 0 0 1 9.5" style="opacity:1"/><path fill="#8e58e4" d="M305.5 141.5q9.01.574 17 4-8.941-.882-17-4" style="opacity:1"/><path fill="#f8c3fd" d="M251.5 149.5q-.5 1.5-2 2-.657.098-1-.5a30.1 30.1 0 0 0 4.5-7.5q1.122 3.51-1.5 6" style="opacity:1"/><path fill="#160948" d="M304.5 130.5a366 366 0 0 0 3 9.5q10.686.96 21 5.5 7.607 5.06 16 7.5-3.154 1.28 0 3.5 2.211 1.405 3 4a5810 5810 0 0 1-16-11q-3.882-3.187-9-4-7.99-3.426-17-4a39.7 39.7 0 0 1-1-11" style="opacity:1"/><path fill="#332372" d="M111.5 116.5a54 54 0 0 0-2 8q-29.727 3.25-51.5 23a2.43 2.43 0 0 0-.5 2q-1.852.332-3 2a83 83 0 0 0-5 9q-1.238 1.329-3 1 .19 6.32-5 10-5.04 11.113-7 23-1.492 17.232-1 35-.925-.166-1.5-1a39 39 0 0 0-1.5-7q-.062-19.626 4-40a474 474 0 0 0 9.5-21q18.85-29.441 53.5-37 5.462.733 11-2.5.83-2.817 3-4.5" style="opacity:1"/><path fill="#401a8c" d="M124.5 142.5q-1.65 1.587-4 2.5-10.715 2.661-20 4-7.575 2.922-13.5 6.5l-1-1q-1.703 4.811-6 4a674 674 0 0 1-7 7 247 247 0 0 0-12.5 16q19.123-40.083 64-39" style="opacity:1"/><path fill="#171637" d="M207.5 145.5q.527 3.554.5 7a11.14 11.14 0 0 0-3.5 5.5q-6.31.534-8 7.5-.345 5.593-6 5.5 1.6 1.738-1 2.5a267 267 0 0 0-11.5 5 611 611 0 0 0-22.5 0 58.3 58.3 0 0 0-10-8 37 37 0 0 0-2-4.5q-1.574-.738-3 .5-13.67-11.305-27.5-4l-1-1q-2.492 4.737-7.5 7a5.58 5.58 0 0 0-1 3l-1 4q-4.523 1.304-3 5a738 738 0 0 1-6 9 81 81 0 0 1 0 6.5q2.691 2.521 1.5 5.5 3.663 3.925 7.5 7a25.5 25.5 0 0 0 7 5q1 0 1 1 2.113 3.702 4 6a3.65 3.65 0 0 0 1.5-1 66.7 66.7 0 0 0 14.5 4 337 337 0 0 1 14-5.5 11.1 11.1 0 0 0 3-4.5q2.16-1.294 4 0 7.278-3.864 15.5-6 3.936 2.115 8.5-1a800 800 0 0 1 12 5 7.5 7.5 0 0 1 2 3 131 131 0 0 1-9.5-5q-2.093 1.395-4.5 0a302 302 0 0 0-14 2 3.65 3.65 0 0 0 1 1.5q-5.433-.13-9 3.5-1.854 3.707-5.5 6-3.657-3.869-4.5 2-2.526.975-4 3-5.172-.588-9.5 2a364 364 0 0 1-14.5-5q.255 1.983-1 3.5a30 30 0 0 1-5-.5q-.329-1.763 1-3a15.7 15.7 0 0 0 4-2q-1.238-1.329-3-1-2.214-3-5.5-5l-2.5-5q-10.935-4.682-12-16.5 1.128-4.439 0-8.5 3.717-3.096 0-6 1.5-4 3 0 3.451-1.154.5-3-.923-5.793-1-11a34 34 0 0 1-7.5 1.5q-31.555 31.086-22 76-1.255 1.517-1 3.5-1.437-.679-2.5-2a281 281 0 0 1-2.5-21q1.746-26.487 16.5-49a21.5 21.5 0 0 1 6-5 33.2 33.2 0 0 1 3.5-6q11.121-4.596 20-10 3.472 1.038 7.5 1 1-4 2 0 .348-1.856 1.5-3a2.43 2.43 0 0 0 .5 2q1-2 2 0 4.931-3.468 11.5-6a65 65 0 0 0-2.5 5q-1 2-2 0a9.5 9.5 0 0 1-1.5 2.5q7.933 2.98 16 6 7.152 3.414 12 9.5 6.132-3.292 2 3a4.46 4.46 0 0 0 1.5 2q9.75-.187 19.5 0a52.2 52.2 0 0 0 12-4.5q1.843-4.996 7-7 3.54-7.276 11-10.5-1.972-2.093 1-3a169 169 0 0 1 2-6" style="opacity:1"/><path fill="#101223" d="M15.5 61.5v133q2.306 36.46 2 99v21q-1.203-2.178-1.5-5a21299 21299 0 0 1-2-156l-1-4-.5 55.5a2665 2665 0 0 0 1 66q-.504 1.545-2 1.5v-144a920 920 0 0 0 1-59q-.303-3.675 1-7 1.152-1.144 1.5-3 .696.891.5 2" style="opacity:1"/><path fill="#1f2330" d="M379.5 114.5h2v64q.25 67.002-.5 134a50 50 0 0 1-2.5 7 30.5 30.5 0 0 1 1.5-9q.67-98.001-.5-196" style="opacity:1"/><path fill="#a660ec" d="M263.5 136.5h1q1.173 10.574-3.5 20-1.062 1.321-2.5 2-.107-3.786 3-6-1.464-2.435 1.5-4 .749-5.979.5-12" style="opacity:1"/><path fill="#622aeb" d="M331.5 149.5q-.282 2.405 1.5 4l1-1q4.455 3.442 9 7a8.4 8.4 0 0 1 .5 4q-4.572-.009-1.5 3 .779-1.523 2.5-2 2.93.984 6 1-1.529 3.06 0 6 1.344-1.509 2 0-4.78 6.26 4 8.5-.105 2.436-1.5 5.5-1.648-3.816-3.5 0 1.77 4.56 5 8 .635 12.816 0 27-.203-25.572-14-46a1179 1179 0 0 1-6-4q-10.06-9.273-23-13a77 77 0 0 1-11-4.5 17.8 17.8 0 0 0 4.5-5.5l1 1q4.101-1.293.5-2.5 2.684-.78 5 1l-3 3 1.5.5q2.247-3.088 6-4a4.46 4.46 0 0 0 1.5 2l3-2q1.794.519 0 1.5a21.3 21.3 0 0 0 9 1.5" style="opacity:1"/><path fill="#33374e" d="M17.5 93.5v72l-2 29v-92z" style="opacity:1"/><path fill="#180e45" d="M264.5 131.5q3.454 1.366 4.5 5a49.2 49.2 0 0 1 0 14q-4 2.984-5 8-3.163.803-1.5 3a58.5 58.5 0 0 1-10 8 9.1 9.1 0 0 0-5-1q11.27-5.01 17.5-16l1.5-10.5q.16-3.331-2-5.5z" style="opacity:1"/><path fill="#1b1544" d="M104.5 154.5q-8.879 5.404-20 10a33.2 33.2 0 0 0-3.5 6 21.5 21.5 0 0 0-6 5q-14.754 22.513-16.5 49-2.19-38.614 28-63.5a230 230 0 0 0 16.5-7.5q.575.834 1.5 1" style="opacity:1"/><path fill="#2b156d" d="M173.5 83.5q-11.971 9.465-24 19a158 158 0 0 1-9.5 14 47.6 47.6 0 0 0-6 16q-1.756 2.09-4.5 2.5.686.621 1 1.5a51 51 0 0 1-2 6q-2.45.702-3.5 3l-1-1a4.93 4.93 0 0 0-.5 3q-21.987 1.736-41 14-15.755 14.435-23 33.5l1 1q-2.341 6.749-6 14-.15 13.585 1 27.5l-2-5a301 301 0 0 1-1-13q.202-8.522 1-17a5092 5092 0 0 1 5-18q1.352-1.185 2-3a247 247 0 0 1 12.5-16 674 674 0 0 0 7-7q4.297.811 6-4l1 1q5.925-3.578 13.5-6.5 9.285-1.339 20-4 2.35-.913 4-2.5a27.2 27.2 0 0 0 3.5-5 91 91 0 0 1 5.5-18q0-1 1-1 1.083.627 1.5 2 10.504-26.016 37-38 .598.342.5 1" style="opacity:1"/><path fill="#12122b" d="M225.5 83.5q-2.463 2.371-6 2-.436-1.725-2.5-2-2.305.921-4 0-9.339 1.133-18 4-3.9-1.21-7 2l-3-1a178.3 178.3 0 0 0-32 24q-.21 2.633 1.5 5-3.286 2.26-4 6-3.138.091-4.5 3a40.4 40.4 0 0 0-3 12 61.4 61.4 0 0 1-5.5 7.5q.608 1.418 2 2-1.89 1.67-3.5.5-1.513 2.288-1.5 5 2.217-.393 4 1a21 21 0 0 0 2.5 6q5.769-2.163 7.5 5 2.217-.393 4 1 2.48 2.432 6 3.5 1.534 4.293 6 4.5a111 111 0 0 1 13-.5q2.305-1.665 2-4.5 8.221.282 9-8a10.1 10.1 0 0 0 6-1.5q3.857-5.975 10-9.5 1.697-2.361.5-5a10 10 0 0 1-2.5-4.5q3.326-4.727 4-10.5a55 55 0 0 1 2-7 19.8 19.8 0 0 0 5-5.5q2.288-1.513 5-1.5-.255-1.983 1-3.5 8.017-2.503 16-5a103 103 0 0 1 18 0 7.25 7.25 0 0 0 2-2.5q-2.593-2.916-1-6 4.534 4.483 8.5 10a20.4 20.4 0 0 0 1.5 5.5 3.65 3.65 0 0 0-1 1.5q2.963 1.163 2.5 4-5.379-2.128-8.5-7a91 91 0 0 0-15.5-4q-8.664.336-17.5 3.5-3.922.918-5 4.5a100 100 0 0 1-7.5 10 250 250 0 0 0-4.5 18 169 169 0 0 0-2 6q-2.972.907-1 3-7.46 3.224-11 10.5-5.157 2.004-7 7a52.2 52.2 0 0 1-12 4.5q-9.75-.187-19.5 0a4.46 4.46 0 0 1-1.5-2q4.132-6.292-2-3-4.848-6.086-12-9.5-8.067-3.02-16-6a9.5 9.5 0 0 0 1.5-2.5q1 2 2 0a65 65 0 0 1 2.5-5q5.662-3.315 6.5-9l1 1a297 297 0 0 1 13-30A102 102 0 0 0 161.5 98q1.9-.465 3.5-1.5l1 1a18.8 18.8 0 0 1 4.5-5.5 60.8 60.8 0 0 0 17.5-8.5q5.126 1.03 9.5-2.5a16.25 16.25 0 0 1 8 0q2.771 2.554 5.5-.5 3.302 1.383 7 0 4.228.723 7.5 3" style="opacity:1"/><path fill="#271c5b" d="M134.5 165.5q-5.028-.117-9.5-2a53.5 53.5 0 0 1-8.5 2.5q-3.646.443-5.5 3.5l-1-1q-3.803 3.525-7.5 7l1-4q8.341-6.727 16-10 3.969 1.056 8.5 0l1 2 3-1q1.561 1.457 2.5 3" style="opacity:1"/><path fill="#6534d9" d="M331.5 149.5a5810 5810 0 0 0 16 11 19 19 0 0 0 3 5 19 19 0 0 1-6-1q-1.721.477-2.5 2-3.072-3.009 1.5-3a8.4 8.4 0 0 0-.5-4q-4.545-3.558-9-7l-1 1q-1.782-1.595-1.5-4" style="opacity:1"/><path fill="#945ad7" d="M212.5 158.5q0 1 1 1a202 202 0 0 0-16 18 57.5 57.5 0 0 0-10 8h-1q.789-2.595 3-4a374 374 0 0 0 23-23" style="opacity:1"/><path fill="#270b6c" d="M264.5 136.5q2.16 2.169 2 5.5l-1.5 10.5q-6.23 10.99-17.5 16-11.725.153-22 1.5a76 76 0 0 0-8 6.5q.35-2.343 2-4 4.47-3.966 9-8 9.301 2.879 19 1.5 5.522-1.308 9-5.5 1.5-.5 2-2 1.438-.679 2.5-2 4.673-9.426 3.5-20" style="opacity:1"/><path fill="#15172e" d="M111.5 221.5q-2.34 3.203-5 .5 4.168-.224 1.5-2.5-1.774 1.846-3.5 0a25.5 25.5 0 0 0-4-4.5q2.437-1.28 1-3-2.715 1.06-6 1.5 1.446-6.466-4.5-9-3.654-9.834-4.5-19.5a19.9 19.9 0 0 1-4-3.5q-2.025 6.034-9 9a168 168 0 0 0-2 6.5l2 1a54.2 54.2 0 0 0-3.5 11.5q-1.037-3.587-3 0a78.3 78.3 0 0 1-2 13q-.147 11.04 1.5 22h3q.885 4.763-3 7l-2-2q.257-1.487-1-2-.255-1.983 1-3.5-9.554-44.914 22-76a34 34 0 0 0 7.5-1.5q.077 5.207 1 11 2.951 1.846-.5 3-1.5-4-3 0 3.717 2.904 0 6 1.128 4.061 0 8.5 1.065 11.818 12 16.5l2.5 5q3.286 2 5.5 5" style="opacity:1"/><path fill="#f1b2fc" d="M222.5 152.5v1q-12.46 11.958-25 24a202 202 0 0 1 16-18 45 45 0 0 1 9-7" style="opacity:1"/><path fill="#d389f7" d="M138.5 170.5a352 352 0 0 0-11.5-2 102 102 0 0 0-9.5 2.5 64.8 64.8 0 0 0-9 10 2.43 2.43 0 0 1-2 .5 111 111 0 0 1 6-7.5q-.342-.598-1-.5 8.889-8.033 21-5.5 3.528.36 6 2.5" style="opacity:1"/><path fill="#472295" d="M233.5 118.5q-18.222 7.668-16 27-.042 3.123 2 5.5a73.5 73.5 0 0 0-7 7.5 374 374 0 0 1-23 23 10.1 10.1 0 0 1 1.5-4q4.143-2.885 6.5-7a468 468 0 0 0 18.5-18 60.8 60.8 0 0 1-2-15 49 49 0 0 1 3.5-9 499 499 0 0 0 8-8q3.573-2.32 8-2" style="opacity:1"/><path fill="#0a091d" d="M346.5 149.5q.467 1.467 2 2a6.85 6.85 0 0 1 4-1 45.8 45.8 0 0 0 2.5 9l1-1a81 81 0 0 0 2.5 3 4.93 4.93 0 0 0 .5 3q3.5 1.5 5 5 .987 2.412-1.5 3.5 1.608 1.926 4 1 4.015 5.317 3 11.5 2.206-1.321 2.5-4 1.619 2.84 4 1 .263-6.779 1.5-13 .25 10.013-.5 20l-1-3-.5 4.5q3.417 11.757 2 24 1.046 12.255 2 24.5-1.083.626-1.5 2l-1.5-3q1.872-4.491 0-9a3.65 3.65 0 0 0-1.5 1q-1.416 6.858 1.5 13a20.6 20.6 0 0 1-2 6 130 130 0 0 1-1.5-16q-1.97 9.64-1.5 19h-1q-4.687 6.509-6 15h-3a194 194 0 0 1 1.5 7 9.6 9.6 0 0 1-3 3q-1.742-1.03-3.5-.5 4.427 6.434-3 9.5-.09-.814-1-1-2.746 2.143-6 1.5 3.5-5.049 9-10-1.658-3.18 0-6.5v-1q5.262-3.504 6-10v-2q1.352-1.185 2-3 1.438-.679 2.5-2 7.368-26.351 2.5-53.5a6.3 6.3 0 0 1 1-3 78.7 78.7 0 0 1-8-18.5q-1.532-3.179-4.5-5a32.4 32.4 0 0 0-1.5-6 377 377 0 0 0-8-6q-.789-2.595-3-4a20.7 20.7 0 0 0 1-5q-7.206.653-5-4.5a24.8 24.8 0 0 0-8-5q-7.704-1.367-15-6-4.666 1.666-8-2l1-3q-2.967-.721-4-3.5-1.818-8.189 0-15.5-2.639-1.512-3.5-4.5-1.604-6.63-6-12-1.035 1.857-1.5 0 1.048-2.919-1-6-2.103-.548-3-2.5a43 43 0 0 0-5-9.5 33.3 33.3 0 0 1-8-8q-1.902 1.392-4 .5 1.719-3.835-3-4-1.834-4.835-7-5 4.1-1.842 2-5.5 1.875-.116 2.5-2 3.843 10.113 14.5 10a41.5 41.5 0 0 1 1 8q2.464.03 4-2a88 88 0 0 0 4.5 11 20.4 20.4 0 0 0 5.5 1.5l-4 4q4.198.659 3 4 1.764 3.187 5.5 6.5 2.785 6.154 3.5 13 2.466-.32 4.5 1l1 9q1.593 2.561 3.5 2-2.097 8.202 5 14.5 3.102 1.03 6-.5a26.6 26.6 0 0 1 2 3.5q11.514 1.327 18 10.5" style="opacity:1"/><path fill="#a64ef8" d="M244.5 156.5q.16 2.818-1.5 1-1.705 1.296-4 3-1 1.5 0 3 2.87 2.53 6.5 1.5a349 349 0 0 0 11-4.5q-3.478 4.192-9 5.5-9.699 1.379-19-1.5-4.53 4.034-9 8l2-8h-3q.065 6.59-1.5 1-1.566 1.684-2 4h-4q-2.024 5.77-7.5 8a57.3 57.3 0 0 1 7.5-11q4.15-4.915 9.5-8 2.721.564 5 0-.29-1.782 1.5-4l1 2a15 15 0 0 0 3.5-3q1.561 3.737 2.5 0 1.05 2.298 3.5 3 3.893-1.08 7 0" style="opacity:1"/><path fill="#130d39" d="M258.5 119.5a12.47 12.47 0 0 1 5.5 3q2.59 3.136 3.5 7 2.746.828 5 0l1 2a100 100 0 0 0-3 17.5q.686.621 1 1.5-3.28 7.576-8 14a10.1 10.1 0 0 0-4 1.5 112 112 0 0 1-11 9q-3.32.939-6.5-.5-5.705 3.127-11 0a2024 2024 0 0 1-18 14q.282 5.599-4.5 8.5 3.13 3.195 7.5 4.5.738 1.574-.5 3 3.102 2.4 6.5 5a69 69 0 0 0 4.5 6.5q4.351-.351 9 1l-1.5 1.5q-2.241-1.87-4.5 0a26 26 0 0 1 5 3q5.482-1.248 11-2.5 2.397-4.146 7-5.5 1.712-1.388 0-2.5.816-1.076 2-1.5a20.7 20.7 0 0 1 5-1 4.93 4.93 0 0 0 .5 3q1.006-1.129 2.5-1-3.575 2.077-5 6-2.466.32-4.5-1-.926 1.423.5 2.5a22.4 22.4 0 0 0-3 6.5q-5.807-.473-11 1a50.5 50.5 0 0 1-10-.5 163 163 0 0 0-11-10.5l-1-2q.166-.925 1-1.5-4.811-1.702-4-6a45.7 45.7 0 0 1-7.5-8.5q-1-1.5 0-3 3.327 1.032 4.5-3l-3-2.5a36 36 0 0 0 4.5-3.5q.52-3.522 3.5-5.5 3.031-.77 4.5-3.5 3.835 1.719 4-3l3-2q4.02.727 8 1l1-2q2.482.453 4 4 3.236-2.447 7.5-1.5l-3-1q1.321-1.062 2-2.5a9.1 9.1 0 0 1 5 1 58.5 58.5 0 0 0 10-8q-1.663-2.197 1.5-3 1-5.016 5-8a49.2 49.2 0 0 0 0-14q-1.046-3.634-4.5-5v-2q-.786-6.611-6-10" style="opacity:1"/><path fill="#1c1447" d="M189.5 173.5q-1.563 3.437-4.5 3-3.765.913-6 4l-7-1-2 2q-4.71-.582-9 0-5.062-1.376-10.5-4a17.9 17.9 0 0 1-5-3q-1.657-1.65-4-2l-1-2a21.4 21.4 0 0 0-6-5q-.939-1.543-2.5-3l-3 1-1-2q-4.531 1.056-8.5 0-7.659 3.273-16 10a5.58 5.58 0 0 1 1-3q5.008-2.263 7.5-7l1 1q13.83-7.305 27.5 4 1.426-1.238 3-.5a37 37 0 0 1 2 4.5 58.3 58.3 0 0 1 10 8 611 611 0 0 1 22.5 0 267 267 0 0 1 11.5-5" style="opacity:1"/><path fill="#ae5ff0" d="M222.5 153.5q1.184.424 2 1.5-3.067.747-4 3.5-5.35 3.085-9.5 8a57.3 57.3 0 0 0-7.5 11q-3.378.624-4.5 4l-1-1a11.53 11.53 0 0 1-3.5 4.5 365 365 0 0 1-12.5 4.5 2458 2458 0 0 0-29.5 0q-3.323-1.981-5-5.5l1-1a32.3 32.3 0 0 0-7-8.5q1.509-.656 0-2 2.343.35 4 2a155 155 0 0 1 6 10.5q17.493.75 35 .5h1q.595 1.538 2 .5a34.7 34.7 0 0 1 7.5-6.5 2.43 2.43 0 0 0 .5-2q12.54-12.042 25-24" style="opacity:1"/><path fill="#643bb2" d="M70.5 142.5a209 209 0 0 0-12.5 12q-16.26 18.523-19.5 43l-2 4a8.44 8.44 0 0 0-.5-4l-1 7a50.4 50.4 0 0 1-.5-10q1.96-11.887 7-23 5.19-3.68 5-10 1.762.329 3-1a83 83 0 0 1 5-9q1.148-1.668 3-2a513 513 0 0 0 4-3 3.65 3.65 0 0 1 1.5 1q1.497-3.41 4.5-6.5 1.665.207 3 1.5" style="opacity:1"/><path fill="#f4b8fd" d="M110.5 173.5h1q.658-.098 1 .5a111 111 0 0 0-6 7.5q-2.786 6.662-3.5 14-.535-6.015.5-12 2.722-5.409 7-10" style="opacity:1"/><path fill="#fce3fe" d="M80.5 140.5a311 311 0 0 0-4 3q-5.368 3.349-10 8a59.6 59.6 0 0 1-10.5 12 46.2 46.2 0 0 1-6 10l-1.5 6q-6.78 13.108-8 28-1.465-4.18-1-9 4.773-28.297 25-48.5l14-10q1.405-1.038 2 .5" style="opacity:1"/><path fill="#d06cfb" d="M58.5 184.5a5092 5092 0 0 0-5 18q-.636-5.675-.5-11-2.253 5.15-6 7a106 106 0 0 0-2.5 6.5l1 5q-5.35 3.925-4 10-2.437 1.28-1 3-2.278 4.577-3 9.5.262-3.182-1-6a217 217 0 0 0 1.5-21 14.7 14.7 0 0 0 1.5 5q1.329-1.237 1-3 5.47-14.433 14-25.5a3.65 3.65 0 0 1-1-1.5 10.8 10.8 0 0 0 2.5-3l1 2a67 67 0 0 0 3.5-5l1 .5a55.5 55.5 0 0 0-3 9.5" style="opacity:1"/><path fill="#1a0c4c" d="M284.5 152.5a163 163 0 0 1 16 6.5q22.258.365 34 18.5 2.279 5.548 6.5 10 .222 4.633 2.5 8.5-.105 1.147-1 1.5a76 76 0 0 0-7.5-16q-1-2-2 0-1-4.5-4.5-7.5a160.5 160.5 0 0 0-18.5-11.5 372 372 0 0 1-20.5-4.5 40 40 0 0 0-5-5.5" style="opacity:1"/><path fill="#7e8292" d="M387.5 135.5h1q.25 87.446 0 175a7659 7659 0 0 1-1-175" style="opacity:.737"/><path fill="#b559fa" d="M141.5 172.5q1.509 1.344 0 2-3.32 1.657-6.5 0a6.55 6.55 0 0 0-3 3l-1-2a15.3 15.3 0 0 1-4.5 1.5q3.792.77 6.5 3.5l1-1a18.1 18.1 0 0 1 4.5 5.5q-.834.575-1 1.5-9.747-11.167-20.5-1-2.3 6.316-1 13a72 72 0 0 0 5.5 6q.572 2.146 3 2.5 3.97.746 8 .5.166.925 1 1.5-7.506 1.73-14-2.5a941 941 0 0 1-4-5 77 77 0 0 0-3.5-12q-1 4-2 0l-3 6q-1.026 1.926.5 3.5-2.84 1.619-1 4-1.278 2.592-3 .5v-1q1.162-6.99 2.5-15 2.61-1.823 3-5l3-1q.926-1.423-.5-2.5a46.6 46.6 0 0 0 6-5.5q3.837-1.087 7 0a19 19 0 0 1 5-3q5.72.62 12 2" style="opacity:1"/><path fill="#42189e" d="M137.5 186.5q4.236 19.767-16 18a72 72 0 0 1-5.5-6q-1.3-6.684 1-13 10.753-10.167 20.5 1" style="opacity:1"/><path fill="#201356" d="M225.5 120.5a499 499 0 0 1-8 8 49 49 0 0 0-3.5 9 60.8 60.8 0 0 0 2 15 468 468 0 0 1-18.5 18q-6.048 1.791-9 7.5-7.11 3.224-13.5 5.5-3.526-4.065-6 1-4.765-.156-10.5 0-2.811.166-4.5-2l-1 1q-2.494-2.487-2.5-6 5.438 2.624 10.5 4 4.29-.582 9 0l2-2 7 1q2.235-3.087 6-4 2.937.437 4.5-3 2.6-.762 1-2.5 5.655.093 6-5.5a12.9 12.9 0 0 0 5-.5 83.4 83.4 0 0 0 10.5-14.5q-5.246-17.777 8.5-30.5 2.648-.96 5 .5" style="opacity:1"/><path fill="#230f61" d="M197.5 170.5q-2.357 4.115-6.5 7a10.1 10.1 0 0 0-1.5 4q-2.211 1.405-3 4-17.507.25-35-.5a155 155 0 0 0-6-10.5 17.9 17.9 0 0 0 5 3q.006 3.513 2.5 6l1-1q1.689 2.166 4.5 2 5.735-.156 10.5 0 2.474-5.065 6-1 6.39-2.276 13.5-5.5 2.952-5.709 9-7.5" style="opacity:1"/><path fill="#c36bf6" d="M138.5 170.5h2l1 2q-6.28-1.38-12-2a19 19 0 0 0-5 3q-3.163-1.087-7 0a46.6 46.6 0 0 1-6 5.5q1.426 1.077.5 2.5l-3 1q-.39 3.177-3 5-1.338 8.01-2.5 15-2.347-4.035-2-9-.278-5.461 2-10-1.035 5.985-.5 12 .714-7.338 3.5-14a2.43 2.43 0 0 0 2-.5 64.8 64.8 0 0 1 9-10 102 102 0 0 1 9.5-2.5q5.785.908 11.5 2" style="opacity:1"/><path fill="#301b73" d="M134.5 165.5a21.4 21.4 0 0 1 6 5h-2q-2.472-2.14-6-2.5-12.111-2.533-21 5.5h-1q-2.217-.393-4 1-10.016 10.984-6.5 25 1.412 3.34 3.5 6a66.5 66.5 0 0 1 6 8 25.5 25.5 0 0 1-7-5 56.8 56.8 0 0 1-6-14.5q.803-2.808 0-5 2.995-3.738 3-8.5-1.523-3.696 3-5 3.697-3.475 7.5-7l1 1q1.854-3.057 5.5-3.5a53.5 53.5 0 0 0 8.5-2.5q4.472 1.883 9.5 2" style="opacity:1"/><path fill="#9353e6" d="M219.5 172.5q-1.65 1.657-2 4a65 65 0 0 0-14 13 4.93 4.93 0 0 1 .5-3 42 42 0 0 1 7.5-7q1.329-1.237 1-3 5.514-.051 3.5-5 1.517 1.255 3.5 1" style="opacity:1"/><path fill="#5423dc" d="M350.5 165.5q3.491 1.854 3.5 6 5.15 3.807 6.5 10a9.1 9.1 0 0 1-1 5q.519 1.794 1.5 0l1.5 3q-1.16 1.817-2.5 0-2.079 3.37.5 7a9.4 9.4 0 0 1 3-3l1 2.5q-2.089 3.54-2 7 1.524.779 2 2.5-.82 4.803-3 9a75 75 0 0 0 2 8.5 42 42 0 0 0-3.5 7.5q.734 9.934-2 20-2.013-2.103-2.5 1a6.9 6.9 0 0 0 2 4 12.4 12.4 0 0 1-2.5 4q-1.476-3.442-2.5 1 1.033 4.637-4 6.5l1 3q-2.69 1.965-5.5 1.5-2.628 7.743-9 13-.905-3.279-3.5-.5 1.752 2.806-1.5 4.5-1.676-.247-3.5-1a23.7 23.7 0 0 1-6 2.5 16.64 16.64 0 0 1-6 5 95 95 0 0 0-15.5 4.5q-4.223-1.77-8 1-2.655-2.877-6.5-1.5l5 1q-5.454 3.487-12.5 1.5l-2 2q-3-2-6 0a48 48 0 0 1-6-3q-5.195.13-10.5 0a6.8 6.8 0 0 0-1.5 3q-.634-2.184-2.5-1.5 1.73 1.37-.5 2.5l-5-3q-1 4-2 0l-2 2q-4-2-6 2-1-2-2 0a7.3 7.3 0 0 1-2-3q-1 4-2 0l-1 2q-5.707-3.973-11 1a31.5 31.5 0 0 0-7-3q-4.641 6.04-3.5-1 1.5-2.5 4-4 24.647-.98 49-2 11.502-.15 22.5 0a363 363 0 0 1 21.5-2q13.59-2.299 24-11 2.29.11 3-2 4-1 5-5 2 0 2-2 3.13-1.627 4-5 2.11-.71 2-3 3.215-2.446 5-6a125 125 0 0 0 4-4 3.65 3.65 0 0 0-1-1.5q4.065-5.863 4-12.5v-6h1q4.146-6.988 2-15 .635-14.184 0-27-3.23-3.44-5-8 1.852-3.816 3.5 0 1.395-3.064 1.5-5.5-8.78-2.24-4-8.5-.656-1.509-2 0-1.529-2.94 0-6" style="opacity:1"/><path fill="#9143f7" d="M219.5 172.5q-1.983.255-3.5-1 2.014 4.949-3.5 5 .329 1.763-1 3a42 42 0 0 0-7.5 7 4.93 4.93 0 0 0-.5 3 10.5 10.5 0 0 1-2.5 3q-1 2 0 4a372 372 0 0 0 16.5 16l1 2q-3.634.114-5.5-3a11.3 11.3 0 0 0-4 2 10.8 10.8 0 0 0-2.5-3l2-1a51 51 0 0 0-4-5.5l1-1q-3.264-.244-5.5-2.5-.539 4.567-2 1l-1 3q-2.05-1.536-2.5 1.5a146 146 0 0 1 10 13.5l-6-5a101.7 101.7 0 0 0-11-13 6887 6887 0 0 0-33-2q-1.054-2.301.5-5 1 8 2 0 1.98 3.124 4-1 1 4 2 0 1.697 1.656 2.5-1a39 39 0 0 1 6.5-2 460 460 0 0 1 13 1q5.642-3.725 12.5-4.5 2.602-4.05 7-6-1.255-1.517-1-3.5 5.476-2.23 7.5-8h4q.434-2.316 2-4 1.565 5.59 1.5-1h3z" style="opacity:1"/><path fill="#2e1479" d="M121.5 199.5q14.28 1.284 9-10.5-10.757-1.49-9 9.5-8.638-7.3 2-12.5 10.383-2.851 13 7.5-4.209 14.934-15 6" style="opacity:1"/><path fill="#23125e" d="M121.5 199.5v-1q-1.757-10.99 9-9.5 5.28 11.784-9 10.5" style="opacity:1"/><path fill="#a34afb" d="M141.5 174.5a32.3 32.3 0 0 1 7 8.5l-1 1q1.677 3.519 5 5.5a2458 2458 0 0 1 29.5 0 365 365 0 0 0 12.5-4.5 11.53 11.53 0 0 0 3.5-4.5l1 1q1.122-3.376 4.5-4-.255 1.983 1 3.5-4.398 1.95-7 6-6.858.775-12.5 4.5a460 460 0 0 0-13-1 39 39 0 0 0-6.5 2q-.803 2.656-2.5 1-1 4-2 0-2.02 4.124-4 1-1 8-2 0-1.554 2.699-.5 5a8.4 8.4 0 0 0-4 .5 29 29 0 0 1-3 4.5q-10.11 4.483-22 9-1.794-.519 0-1.5-4.026-1.167-7-4 .834-.575 1-1.5 6.494 4.23 14 2.5-.834-.575-1-1.5 3.8.362 5-3 0-1 1-1 1.494.129 2.5-1 2.686-6.629.5-13.5-1.284-2.392-4-2.5.166-.925 1-1.5a18.1 18.1 0 0 0-4.5-5.5l-1 1q-2.708-2.73-6.5-3.5a15.3 15.3 0 0 0 4.5-1.5l1 2a6.55 6.55 0 0 1 3-3q3.18 1.657 6.5 0" style="opacity:1"/><path fill="#ebb0fc" d="M197.5 177.5a2.43 2.43 0 0 1-.5 2 34.7 34.7 0 0 0-7.5 6.5q-1.405 1.038-2-.5a57.5 57.5 0 0 1 10-8" style="opacity:1"/><path fill="#1a0c4c" d="M247.5 168.5q-.679 1.438-2 2.5l3 1q-4.264-.947-7.5 1.5-1.518-3.547-4-4l-1 2a73 73 0 0 1-8-1l-3 2q-.165 4.719-4 3-1.469 2.73-4.5 3.5-2.98 1.978-3.5 5.5a36 36 0 0 1-4.5 3.5l3 2.5q-1.173 4.032-4.5 3-1 1.5 0 3a45.7 45.7 0 0 0 7.5 8.5q-.811 4.298 4 6-.834.575-1 1.5a372 372 0 0 1-16.5-16q-1-2 0-4a10.5 10.5 0 0 0 2.5-3 65 65 0 0 1 14-13 76 76 0 0 1 8-6.5q10.275-1.347 22-1.5" style="opacity:1"/><path fill="#130c3a" d="m243.5 86.5 11 5.5a57.7 57.7 0 0 0 9.5 8.5q2.12 6.372 8.5 8v1a280 280 0 0 1 7.5 37q.936 4.161 4.5 6a40 40 0 0 1 5 5.5 372 372 0 0 0 20.5 4.5 160.5 160.5 0 0 1 18.5 11.5q3.5 3 4.5 7.5 1-2 2 0a76 76 0 0 1 7.5 16q7.151 20.484 1 41a144 144 0 0 0-5 8q2.264 3.18-1 5a9.1 9.1 0 0 0-1-5q7.011-13.025 6-28 .802-12.777-5-24 .815-2.046.5-4-3.99-5.88-8-12a56.1 56.1 0 0 0-13.5-11.5 219 219 0 0 1-28-8 81 81 0 0 1-3-2.5 87 87 0 0 1-5.5-3q-1.932-6.628-6.5-11.5.315-5.191 3-9.5-2.22-8.447-7-15.5l1-1q-4.73-6.554-9.5-14.5-1.517-1.255-3.5-1 0-5-5-5 .255-1.983-1-3.5-4.883-1.675-8-5.5" style="opacity:1"/><path fill="#211652" d="M99.5 180.5q-.005 4.762-3 8.5.803 2.192 0 5a56.8 56.8 0 0 0 6 14.5q-3.837-3.075-7.5-7 1.191-2.979-1.5-5.5a81 81 0 0 0 0-6.5q3.09-4.562 6-9" style="opacity:1"/><path fill="#b769f3" d="M137.5 186.5q2.716.108 4 2.5 2.186 6.871-.5 13.5-1.006 1.129-2.5 1 3.04-4.059 2.5-9-1.54 6.333-6.5 10.5 1.615.705 3-.5-1.2 3.362-5 3a32.5 32.5 0 0 1-8-.5q-2.428-.354-3-2.5 20.236 1.767 16-18" style="opacity:1"/><path fill="#6734de" d="M336.5 170.5q2.957 1.984 6 4 13.797 20.428 14 46 2.146 8.012-2 15 .25-14.508-.5-29-.315-2.337-1.5-4a179 179 0 0 0-8.5-22 102 102 0 0 1-7.5-10" style="opacity:1"/><path fill="#111422" d="M111.5 221.5q1.762-.329 3 1a15.7 15.7 0 0 1-4 2q-1.329 1.237-1 3 2.59.472 5 .5 1.255-1.517 1-3.5a364 364 0 0 0 14.5 5q4.328-2.588 9.5-2-1.542 1.93 1 3.5l-.5 1.5q-.634-2.184-2.5-1.5a26.9 26.9 0 0 1-5.5 6.5 10.3 10.3 0 0 0-1.5-4q-10.674 5.62-23 4v-7q-9.958-.665-19-.5-4.542 6.797-13 7 1.775 1.77 2 4.5.088 3.914-2 7-2.712 2.127-2 6-4.06-.282-7-3 3.885-2.237 3-7h-3a135.7 135.7 0 0 1-1.5-22 78.3 78.3 0 0 0 2-13q1.963-3.587 3 0a54.2 54.2 0 0 1 3.5-11.5l-2-1q.919-3.22 2-6.5 6.975-2.966 9-9a19.9 19.9 0 0 0 4 3.5q.846 9.666 4.5 19.5 5.946 2.534 4.5 9 3.285-.44 6-1.5 1.437 1.72-1 3a25.5 25.5 0 0 1 4 4.5q1.726 1.846 3.5 0 2.668 2.276-1.5 2.5 2.66 2.703 5-.5" style="opacity:1"/><path fill="#482195" d="M110.5 173.5q-4.278 4.591-7 10-2.278 4.539-2 10-.347 4.965 2 9v3q-2.088-2.66-3.5-6-3.516-14.016 6.5-25 1.783-1.393 4-1" style="opacity:1"/><path fill="#9444f7" d="M119.5 206.5q-.166.925-1 1.5 2.974 2.833 7 4-1.794.981 0 1.5 11.89-4.517 22-9-.672 4.099-4 6.5.834.575 1 1.5-6.796 7.843-17.5 7l-5.5-.5a48.8 48.8 0 0 1-11-4.5q0-1-1-1a66.5 66.5 0 0 0-6-8v-2q1.722 2.092 3-.5-1.84-2.381 1-4-1.526-1.574-.5-3.5l3-6q1 4 2 0a77 77 0 0 1 3.5 12 941 941 0 0 0 4 5" style="opacity:1"/><path fill="#8245d1" d="M154.5 199.5q16.649.97 33 2h-37q-1.071 6.65-6 11-.166-.925-1-1.5 3.328-2.401 4-6.5a29 29 0 0 0 3-4.5 8.4 8.4 0 0 1 4-.5" style="opacity:1"/><path fill="#c25efb" d="M53.5 202.5a243 243 0 0 0-1 17 154 154 0 0 0-2.5-13l-5 10a67.3 67.3 0 0 1-4 14l-1-1q-.27 4.793-1.5 9a19.2 19.2 0 0 0-1-6q.722-4.923 3-9.5-1.437-1.72 1-3-1.35-6.075 4-10l-1-5a106 106 0 0 1 2.5-6.5q3.747-1.85 6-7-.136 5.325.5 11" style="opacity:1"/><path fill="#1f0e56" d="M187.5 201.5a101.7 101.7 0 0 1 11 13h-2q-3.265-.13-6-2-5.892-11.85-19-9-6.56.597-12.5 0a12.14 12.14 0 0 0-4.5 3.5q1.73 1.37-.5 2.5-5.456-3.125-6.5 4a11.1 11.1 0 0 1-3 4.5 337 337 0 0 0-14 5.5 66.7 66.7 0 0 1-14.5-4 3.65 3.65 0 0 1-1.5 1q-1.887-2.298-4-6a48.8 48.8 0 0 0 11 4.5l5.5.5q10.704.843 17.5-7 4.929-4.35 6-11z" style="opacity:1"/><path fill="#f4bafd" d="M138.5 203.5q-1 0-1 1-1.385 1.205-3 .5 4.96-4.167 6.5-10.5.54 4.941-2.5 9" style="opacity:1"/><path fill="#100c2e" d="M298.5 218.5q-3.457 2.317-1 6l-2-1a18.3 18.3 0 0 0-4-6q.03-2.464-2-4-12.942-7.55-27-3-1.494-.129-2.5 1a4.93 4.93 0 0 1-.5-3 20.7 20.7 0 0 0-5 1v-1a27.2 27.2 0 0 1 5-3.5 122 122 0 0 1 21-1q2.936 3.134 6.5 2.5 4.365 1.425 3.5 6 3.876.103 6 3.5l-1 1h4q-.834.575-1 1.5" style="opacity:1"/><path fill="#1f1350" d="M123.5 147.5q-2.892 2.42-7 3-1.197.686-1 2-1.152 1.144-1.5 3-1-4-2 0-4.028.038-7.5-1-.925-.166-1.5-1a230 230 0 0 1-16.5 7.5q-30.19 24.886-28 63.5a281 281 0 0 0 2.5 21q1.063 1.321 2.5 2 1.257.513 1 2-.305 3.278-2 6h-1q-.24-2.48-2-4a167 167 0 0 1-4-14 294 294 0 0 1-1-27.5q3.659-7.251 6-14l-1-1q7.245-19.065 23-33.5 19.013-12.264 41-14" style="opacity:1"/><path fill="#110938" d="M347.5 160.5a377 377 0 0 1 8 6 32.4 32.4 0 0 1 1.5 6q2.968 1.821 4.5 5a78.7 78.7 0 0 0 8 18.5 6.3 6.3 0 0 0-1 3q4.868 27.149-2.5 53.5-1.062 1.321-2.5 2a102.7 102.7 0 0 0 5-25q1.733-11.233.5-23-.99-4.767-2.5-9-2.1-8.444-6-16-1.35-6.193-6.5-10-.009-4.146-3.5-6a19 19 0 0 1-3-5" style="opacity:1"/><path fill="#ab51fa" d="M52.5 219.5q.36 6.514 1 13a165 165 0 0 0-3.5-9q-.716 3.126-2.5 5.5a3.94 3.94 0 0 0 1 2q-3.923 3.01-2 7.5-1.2 3.95-5 5.5 1.647 1.155 0 2.5a632 632 0 0 1-3-8q1.23-4.207 1.5-9l1 1a67.3 67.3 0 0 0 4-14l5-10a154 154 0 0 1 2.5 13" style="opacity:1"/><path fill="#0d101c" d="M75.5 248.5q2.088-3.086 2-7-.225-2.73-2-4.5 8.458-.203 13-7 9.042-.165 19 .5v7q12.326 1.62 23-4a10.3 10.3 0 0 1 1.5 4 26.9 26.9 0 0 0 5.5-6.5q1.866-.684 2.5 1.5l.5-1.5q-2.542-1.57-1-3.5 1.474-2.025 4-3 .843-5.869 4.5-2 3.646-2.293 5.5-6 3.362 1.2 3 5a29.8 29.8 0 0 1 7-2q-.265-3.721 3-5.5 5.562.613 11-.5v4q5.202 1.476 10.5 3a18.1 18.1 0 0 1 4.5 5.5l4 2q-5.44 3.229-1 8-.862 5.115-6 5.5-.19 2.55-2 4.5 1.8 2.555-1 4.5a7050 7050 0 0 0-10 7q-1.718 1.914 0 4-2.316 1.683-4-1a55 55 0 0 0-2 4.5q-3.6.279-7 1.5 3.881 3.679-1 6.5a22.5 22.5 0 0 1-7 2q-4.297 3.43-10 2.5.699 2.552 0 4.5-4.27 1.416-7.5-1.5a67 67 0 0 0-13 3 34 34 0 0 0-9-3q-2.014 1.07-4-1l-3 1a34 34 0 0 0-7.5-1.5l-1.5-1.5q-6.73 3.13-11-4-2.476-2.853-1-6a64 64 0 0 1-8-7 4.93 4.93 0 0 1-.5-3q-7.404.805-3-4.5-.971-2.16-1-4.5" style="opacity:1"/><path fill="#230f62" d="M334.5 177.5q2.02 1.006 3.5 0a149.5 149.5 0 0 0 10 22q-.375 7.517 1.5 15 1.008 19.966-7 38a58.6 58.6 0 0 0-8 10 71.7 71.7 0 0 1 7-13 40.7 40.7 0 0 1 3-9.5q-.834-.575-1-1.5 6.151-20.516-1-41 .895-.353 1-1.5-2.278-3.867-2.5-8.5-4.221-4.452-6.5-10" style="opacity:1"/><path fill="#371982" d="M366.5 197.5q1.51 4.233 2.5 9 1.233 11.767-.5 23 .618-13.35-2-26z" style="opacity:1"/><path fill="#ea95fb" d="M38.5 197.5q1 0 1 1-.465 4.82 1 9 .329 1.763-1 3a14.7 14.7 0 0 1-1.5-5 217 217 0 0 1-1.5 21v-25z" style="opacity:1"/><path fill="#955ef1" d="M352.5 202.5q1.185 1.663 1.5 4 .75 14.492.5 29h-2a84 84 0 0 0 1-17 292 292 0 0 0-1-16" style="opacity:1"/><path fill="#140f36" d="M196.5 214.5q1.757 7.518 8 12 1.393 1.783 1 4-1.152-1.144-1.5-3a3.65 3.65 0 0 1-1.5 1q-4.051-5.66-10-9-.847-3.066-3-5a7.5 7.5 0 0 0-2-3 800 800 0 0 0-12-5q-4.564 3.115-8.5 1-8.222 2.136-15.5 6-1.84-1.294-4 0 1.044-7.125 6.5-4 2.23-1.13.5-2.5a12.14 12.14 0 0 1 4.5-3.5q5.94.597 12.5 0 13.108-2.85 19 9 2.735 1.87 6 2" style="opacity:1"/><path fill="#7844cd" d="M281.5 212.5a34.3 34.3 0 0 1-11-1 29 29 0 0 1-4 1.5l2 1q-3.067.747-4 3.5h-3q-5 2-7 7-2.11.71-2 3-11.511.25-23-.5-1.554-2.426-3.5-.5a304 304 0 0 0-7.5-12 163 163 0 0 1 11 10.5q4.975.747 10 .5a36.9 36.9 0 0 0 12-1 35.7 35.7 0 0 1 6-8q11.073-9.082 24-4" style="opacity:1"/><path fill="#240e64" d="m198.5 214.5 6 5q5.59 3.248 8 9l-6 1a6.85 6.85 0 0 1 1-4 6.8 6.8 0 0 0-3-1.5l1-1q-5.464-2.707-7-8.5" style="opacity:1"/><path fill="#6a2fef" d="M218.5 214.5a304 304 0 0 1 7.5 12q1.946-1.926 3.5.5 11.489.75 23 .5 2.11-.71 2-3 4-3 7-7h3a3205 3205 0 0 0 18-4 8.4 8.4 0 0 1-.5 4q-3.544 1.098-7.5 0-.699 2.551 0 4.5-3.684 2.428-7.5 1.5l-1.5 6q0 1-1 1t-1 1q-.926.166-1.5 1-.67-9.733-3 0l-1-1q-.75 1.75-2.5 2.5 1.26 2.5-1.5.5a4.93 4.93 0 0 1-.5-3q-5.243-2.11-9.5 2-1.574-1.526-3.5-.5 1.794.981 0 1.5a4.46 4.46 0 0 1-1.5-2q-1.401 5.197-4.5 1-3.058 1.165-2 3.5l-1.5 1.5q-1.359-3.168-4.5-2.5a6.55 6.55 0 0 0 3 3l-4 1q6.193 5.542-2 4-2 1.5 0 3-4.508 1.395-8 6l1 1q-2.199 2.329-3 5.5-1.16 1.817-2.5 0-1.876 4.321-6.5 5.5 1.73 1.37-.5 2.5-2.76-2-1.5.5-5.454.94 0 3.5-.519 1.794-1.5 0a4.93 4.93 0 0 0-.5 3h-3v3a4.93 4.93 0 0 0-3 .5q1.006 1.48 0 3.5-3.368-.062-2-2.5-1-1-2 0-4.23 5.962-7 13-4.212 1.38-6.5-2.5-1.026 1.926.5 3.5a79 79 0 0 0-8 7q-4.264-.946-7.5 1.5l-1-1q-4.45 1.954-7 6-2.003-3.157-5-2-1-4-2 0a7.3 7.3 0 0 0-2-3q-12.086.516-23.5 3a85 85 0 0 1-11-6.5 8.4 8.4 0 0 1 4-.5h4q14.508.25 29-.5 4.863-.609 9-2.5 10.322-2.16 18-9a57.5 57.5 0 0 1 9-9q3.354-1.333 6-4a4.46 4.46 0 0 1 1.5 2 61 61 0 0 0 4.5-9q1.16-1.817 2.5 0a96 96 0 0 0 5.5-10 25.5 25.5 0 0 0 5-7 178 178 0 0 0 11.5-11q1.038-1.405-.5-2 .257-1.487-1-2a836 836 0 0 0-6-5q-2.41-5.752-8-9a146 146 0 0 0-10-13.5q.45-3.036 2.5-1.5l1-3q1.461 3.567 2-1 2.236 2.256 5.5 2.5l-1 1a51 51 0 0 1 4 5.5l-2 1a10.8 10.8 0 0 1 2.5 3 11.3 11.3 0 0 1 4-2q1.866 3.114 5.5 3" style="opacity:1"/><path fill="#efbbfc" d="M261.5 217.5q-3 4-7 7 2-5 7-7" style="opacity:1"/><path fill="#1d085a" d="M257.5 216.5a35.7 35.7 0 0 0-6 8 36.9 36.9 0 0 1-12 1q5.193-1.473 11-1a22.4 22.4 0 0 1 3-6.5q-1.426-1.077-.5-2.5 2.034 1.32 4.5 1" style="opacity:1"/><path fill="#f2c1fe" d="M254.5 224.5q.11 2.29-2 3-.11-2.29 2-3" style="opacity:1"/><path fill="#9344f7" d="m53.5 232.5 2 5a167 167 0 0 0 4 14 39.7 39.7 0 0 0-6.5-7l-3.5 3.5 1 1q-2.341.477-3.5 2.5-3.267-4.452-3.5 1-2.36-2.403-2-6 1.647-1.345 0-2.5 3.8-1.55 5-5.5-1.923-4.49 2-7.5a3.94 3.94 0 0 1-1-2q1.784-2.374 2.5-5.5a165 165 0 0 1 3.5 9" style="opacity:1"/><path fill="#5227a5" d="M34.5 194.5q-.247 5.025.5 10l1-7a8.44 8.44 0 0 1 .5 4v25q1.262 2.818 1 6a19.2 19.2 0 0 1 1 6 632 632 0 0 0 3 8q-.36 3.597 2 6a127 127 0 0 0 4 12q-5.327-7.704-7.5-17-1.423-2.39-3.5-4l-3-14q-.492-17.768 1-35" style="opacity:1"/><path fill="#1a0f4a" d="M196.5 214.5h2q1.536 5.793 7 8.5l-1 1a6.8 6.8 0 0 1 3 1.5 6.85 6.85 0 0 0-1 4l6-1q1.272 2.971 1.5 6a71 71 0 0 0-9.5 10.5q-4.151 1.555-7 4.5.012-5.52 5-8l2 1q.753-4.518 4.5-7 .96-4.302-3.5-5 .393-2.217-1-4-6.243-4.482-8-12" style="opacity:1"/><path fill="#080b14" d="M379.5 239.5q.687 4.341-2 7.5 1.607 10.835 2 22.5a311 311 0 0 1-4.5 50q-3.134 2.936-2.5 6.5-2.98 3.21-4 7.5-8.195 4.098-3 12-.5 1.5-2 2-6.596 3.393-11 9.5l-16 8a115 115 0 0 0-11.5 3.5 62.2 62.2 0 0 1-12.5-1q-3.212.17-5.5 2-3-2-6 0-2.157-1.827-5-2-72.284 1.527-147.5 0 .166-.926 1-1.5a18.5 18.5 0 0 0-6-.5v-8h4v-8h8q-.288-4.964 4-7.5a8.4 8.4 0 0 0-4-.5q-.245-3.535.5-7a26.9 26.9 0 0 0 3.5 6 26.9 26.9 0 0 0 3.5-6q.724 1.422.5 3h8v-3q5.716-.144 0-2 4.509-1.872 9 0a29 29 0 0 1 4-1.5 134 134 0 0 0-13-2.5q8.014-1.505 16-3a8.4 8.4 0 0 0 .5 4q3.5-8 7 0a8.4 8.4 0 0 0 .5-4q12.345-1.543 24.5 0l1-2q2.803 1.748 5.5-1a4.46 4.46 0 0 1 1.5 2l5-1q2.39 2.678 4.5.5-2.334-1.08-3-3.5 8.016-.249 16 .5a10.8 10.8 0 0 0 3 2.5 25.6 25.6 0 0 1 6-6q.08 1.78 1 4 3-4 6 0a96.4 96.4 0 0 0 18.5-4q3 2 6 0l1 3q2.918-2.522 6-2l7-3 1 1a106.8 106.8 0 0 0 24.5-8.5q-1.817-1.34 0-2.5 1.427 1.239 3 .5 1.842-3.21 5-5l-2-1q5.99-.482 10-5-1.116-1.558-3-1.5-3.234-.558 0-3a3.65 3.65 0 0 1 1.5 1q2.74-2.36 6.5-2.5.85-1.492 2-2.5 7.427-3.066 3-9.5 1.758-.53 3.5.5a9.6 9.6 0 0 0 3-3 194 194 0 0 0-1.5-7h3q1.313-8.491 6-15 .335 4.926 2 9.5a840 840 0 0 1-10 19.5 4.46 4.46 0 0 1-1.5-2q-1.558 5.132-6 8-3.069 4.16.5 7.5-2.41 1.573-2 4.5-3.333-.483-5.5 2-5.618 6.255-8 14-.273-5.071-4.5-3 2.175 2.024 2 5-6.464-.383-6.5-7a26.7 26.7 0 0 1-1.5 6.5 4.46 4.46 0 0 1 2 1.5 138 138 0 0 1-16 3.5q-2.008 3.024-5.5 3.5a41 41 0 0 0-10.5-1v6h-8a4.93 4.93 0 0 0-.5-3q-3.579 1.895-5.5 5.5a8.4 8.4 0 0 0 4 .5v8q-5.484.005-10-3a141 141 0 0 0-11 2 13.1 13.1 0 0 0 7 1q.26 9.08 2 18l-1 2a25.9 25.9 0 0 1-1-10q-5.287.428-10-2-2.322 2.814-6 3v-3h-3v-3a6.85 6.85 0 0 1-4-1 36.9 36.9 0 0 0-1 12h-8q-.255 1.983 1 3.5-6.042.588-12 1.5v3q10.99-1.383 23 1 15.99-2.499 31.5 0 15.783-1.428 32 0a59 59 0 0 1 7.5-1.5q2.533-5.826 7-2.5 4.068-1.308 7-4.5-1.614-2.589-.5-5.5 5.22 5.685 5.5-3 6 1 5-5a6.85 6.85 0 0 0 4-1 68 68 0 0 1 3-8.5q-.608-1.418-2-2a8.4 8.4 0 0 1 4-.5q-.183-4.135 3.5-6l1-7q2.967 1.974 4.5-1.5-3.643-4.565 3-4.5a763 763 0 0 0 5-34.5 388 388 0 0 1-.5-14.5q-3.723-1.686-1.5-5a55.6 55.6 0 0 1-1.5-9q-.417 1.374-1.5 2-.47-9.36 1.5-19 .256 8.047 1.5 16a20.6 20.6 0 0 0 2-6q-2.916-6.142-1.5-13a3.65 3.65 0 0 1 1.5-1q1.872 4.509 0 9l1.5 3q.417-1.374 1.5-2" style="opacity:1"/><path fill="#313644" d="M387.5 128.5v7a7659 7659 0 0 0 1 175q.473 5.807-1 11-.549-7.452-1.5 1l-1-2a239 239 0 0 0-7.5 20q-2.92 3.351-3.5 8-2.277.995-3.5 3-8.905 7.651-16 16.5a124 124 0 0 1-14 5.5q1.874-2.454 5-3.5-3.95.38-8 0 6.594-2.377 11-7.5a76 76 0 0 0 14-11.5q1.255-1.517 1-3.5 1.5-.5 2-2l8-9a83.4 83.4 0 0 1 5-17 50 50 0 0 0 2.5-7q.75-66.998.5-134 1.235 5.216 1.5 11l1-78a748 748 0 0 1 2 50 539 539 0 0 1 1.5-33" style="opacity:1"/><path fill="#13142b" d="M25.5 201.5q.704 16.75 2.5 34a6.54 6.54 0 0 1 3 3l1 10a31 31 0 0 1 4.5 3 114 114 0 0 0 3.5 14L55.5 283q2.928.549 5 2.5a481 481 0 0 1 8 9 445 445 0 0 0-17-4q-4.47-2.96-6-8 .625-3.869-2-6.5.685-.621 1-1.5a32.5 32.5 0 0 1-6.5-7q-1.551-5.07-2-10-2.418.678-3 4-.804-3.554-3.5-6 1.402-4.595 0-9.5a6.98 6.98 0 0 1-2.5-3.5q-.417 1.374-1.5 2a61 61 0 0 0-.5-11q-2.658-2.235-.5-5a138 138 0 0 0-4-14.5 42.3 42.3 0 0 0 1.5-8.5l1 3q.234-4.036 2.5-7" style="opacity:1"/><path fill="#4924b2" d="M366.5 203.5q2.618 12.65 2 26a102.7 102.7 0 0 1-5 25q-.648 1.815-2 3 2.78-10.17 5-22.5-.194-2.971-2-5 2.256-2.006 3-5-.184-9.863-1-21.5" style="opacity:1"/><path fill="#edb4fc" d="M219.5 235.5q1.538.595.5 2a178 178 0 0 1-11.5 11 100.6 100.6 0 0 1 11-13" style="opacity:1"/><path fill="#1e0a59" d="M297.5 224.5q3.55 4.77 3 11 .23 4.856-2 9h-1a54.9 54.9 0 0 0 0-20" style="opacity:1"/><path fill="#d8a2f9" d="M352.5 235.5h1v6a63 63 0 0 1-4 8 131 131 0 0 0 3-14" style="opacity:1"/><path fill="#5b27e1" d="M281.5 212.5q6.2.226 10 5a18.3 18.3 0 0 1 4 6q2.165 8.307 2 16.5-7.962 21.29-31 18.5h-3a3122 3122 0 0 0-9-10 25 25 0 0 0-2-7.5q-9.77-1.23-19 .5v1a2.43 2.43 0 0 0-2 .5 656 656 0 0 0-28 30.5l-9 8q1.006-2.02 0-3.5a4.93 4.93 0 0 1 3-.5v-3h3a4.93 4.93 0 0 1 .5-3q.981 1.794 1.5 0-5.454-2.56 0-3.5-1.26-2.5 1.5-.5 2.23-1.13.5-2.5 4.624-1.179 6.5-5.5 1.34 1.817 2.5 0 .801-3.171 3-5.5l-1-1q3.492-4.605 8-6-2-1.5 0-3 8.193 1.542 2-4l4-1a6.55 6.55 0 0 1-3-3q3.141-.668 4.5 2.5l1.5-1.5q-1.058-2.335 2-3.5 3.099 4.197 4.5-1a4.46 4.46 0 0 0 1.5 2q1.794-.519 0-1.5 1.926-1.026 3.5.5 4.257-4.11 9.5-2a4.93 4.93 0 0 0 .5 3q2.76 2 1.5-.5 1.75-.75 2.5-2.5l1 1q2.33-9.733 3 0 .574-.834 1.5-1-2.943 12.381 9 17a6.9 6.9 0 0 1 4-2q8.354 3.543 11-5v-3q-1.188-3.367-4-1 2.654-14.102-12-12.5-3.702 1.469-6 4.5l1.5-6q3.816.928 7.5-1.5-.699-1.949 0-4.5 3.956 1.098 7.5 0a8.4 8.4 0 0 0 .5-4 3205 3205 0 0 1-18 4q.933-2.753 4-3.5l-2-1a29 29 0 0 0 4-1.5 34.3 34.3 0 0 0 11 1" style="opacity:1"/><path fill="#ecb8fb" d="M287.5 238.5v3l-3 2q.375-3.261 3-5" style="opacity:1"/><path fill="#421ca1" d="M233.5 241.5q9.23-1.73 19-.5a25 25 0 0 1 2 7.5q-2.052-2.877-3-6.5a163 163 0 0 0-18-.5" style="opacity:1"/><path fill="#8b58d0" d="M287.5 238.5q-2.625 1.739-3 5-3 6-6 0 3.585-2.087 5-6 2.812-2.367 4 1" style="opacity:1"/><path fill="#230a67" d="M283.5 237.5q-1.415 3.913-5 6-16.109 4.417-14-13 1 0 1-1 2.298-3.031 6-4.5 14.654-1.602 12 12.5" style="opacity:1"/><path fill="#160c43" d="M272.5 226.5q.942 2.15 4.5 4 3.717-1.956 4.5 2.5-1.962 3.397-2 7.5-2.552.699-4.5 0l-2 2q-3.276.912-6-2-1.107-5.642 1-11 2.113-1.922 4.5-3" style="opacity:1"/><path fill="#6836d5" d="M264.5 230.5q-2.109 17.417 14 13 3 6 6 0l3-2q-2.646 8.543-11 5a6.9 6.9 0 0 0-4 2q-11.943-4.619-9-17 0-1 1-1" style="opacity:1"/><path fill="#6334ce" d="M353.5 241.5q.065 6.637-4 12.5.686.621 1 1.5a125 125 0 0 1-4 4 20.7 20.7 0 0 0 1-5q2.147-1.92 2-5a63 63 0 0 0 4-8" style="opacity:1"/><path fill="#210b60" d="M233.5 242.5v-1q9.014-.249 18 .5.948 3.623 3 6.5 4.52 5 9 10-3.921.334-5-3.5a11.3 11.3 0 0 1-3.5-1.5 23.16 23.16 0 0 0-5.5-8.5 3.65 3.65 0 0 0 1-1.5 13.1 13.1 0 0 0-7-1z" style="opacity:1"/><path fill="#0f1025" d="M189.5 214.5q2.153 1.934 3 5 5.949 3.34 10 9a3.65 3.65 0 0 0 1.5-1q.348 1.856 1.5 3 .428 2.682-1 5a32.35 32.35 0 0 0-9 10 223 223 0 0 1-21 19.5q1.817 1.34 0 2.5-1.964-3.587-3 0-.07 2.307 2 3 0 1-1 1a10.1 10.1 0 0 0-6 1.5q-2.864 3.62-7 5.5a3.65 3.65 0 0 0 1 1.5q-2.098.892-4-.5-1.329 1.237-1 3a1258 1258 0 0 1-24.5 5q-6.114-.308-13.5 0a50.4 50.4 0 0 0-13-2.5 61.7 61.7 0 0 0-14-5l-4-4q-3.29.855-6-1l1-1q-3.267-.663-2-3-2.97-3.754-7-5.5a25 25 0 0 0-.5-7 25.7 25.7 0 0 1-5.5-7q2.94 2.718 7 3-.712-3.873 2-6 .029 2.34 1 4.5-4.404 5.305 3 4.5a4.93 4.93 0 0 0 .5 3 64 64 0 0 0 8 7q-1.476 3.147 1 6 4.27 7.13 11 4l1.5 1.5q3.892.339 7.5 1.5l3-1q1.986 2.07 4 1a34 34 0 0 1 9 3 67 67 0 0 1 13-3q3.23 2.916 7.5 1.5.699-1.948 0-4.5 5.703.93 10-2.5a22.5 22.5 0 0 0 7-2q4.881-2.821 1-6.5a26.7 26.7 0 0 1 7-1.5 55 55 0 0 1 2-4.5q1.684 2.683 4 1-1.718-2.086 0-4 5.009-3.513 10-7 2.8-1.945 1-4.5 1.81-1.95 2-4.5 5.138-.385 6-5.5-4.44-4.771 1-8l-4-2a18.1 18.1 0 0 0-4.5-5.5 3014 3014 0 0 0-10.5-3v-4a35.3 35.3 0 0 1-11 .5q-3.265 1.779-3 5.5a29.8 29.8 0 0 0-7 2q.362-3.8-3-5 3.567-3.63 9-3.5a3.65 3.65 0 0 1-1-1.5 302 302 0 0 1 14-2q2.407 1.395 4.5 0a131 131 0 0 0 9.5 5" style="opacity:1"/><path fill="#141036" d="M205.5 230.5q4.46.698 3.5 5-3.747 2.482-4.5 7l-2-1q-4.988 2.48-5 8-5.028 1.986-7.5 7l-1-1q-1.256 2.776-2.5 5.5l-9 5a26.4 26.4 0 0 1-4 4.5q-2.07-.693-2-3 1.036-3.587 3 0 1.817-1.16 0-2.5a223 223 0 0 0 21-19.5 32.35 32.35 0 0 1 9-10q1.428-2.318 1-5" style="opacity:1"/><path fill="#070911" d="M370.5 252.5h1q1.083-.626 1.5-2a55.6 55.6 0 0 0 1.5 9q-2.223 3.314 1.5 5 .117 7.337.5 14.5a763 763 0 0 1-5 34.5q-6.643-.065-3 4.5-1.533 3.474-4.5 1.5l-1 7q-3.683 1.865-3.5 6a8.4 8.4 0 0 0-4 .5q1.392.582 2 2a68 68 0 0 0-3 8.5 6.85 6.85 0 0 1-4 1q1 6-5 5-.28 8.685-5.5 3-1.114 2.911.5 5.5-2.932 3.192-7 4.5-4.467-3.326-7 2.5a59 59 0 0 0-7.5 1.5q-16.217-1.428-32 0-15.51-2.499-31.5 0-12.01-2.383-23-1v-3a220 220 0 0 1 12-1.5q-1.255-1.517-1-3.5h8a36.9 36.9 0 0 1 1-12 6.85 6.85 0 0 0 4 1v3h3v3q3.678-.186 6-3 4.713 2.428 10 2a25.9 25.9 0 0 0 1 10l1-2a110.3 110.3 0 0 1-2-18 13.1 13.1 0 0 1-7-1 141 141 0 0 1 11-2q4.516 3.005 10 3v-8a8.4 8.4 0 0 1-4-.5q1.921-3.605 5.5-5.5.724 1.422.5 3h8v-6q5.313-.18 10.5 1 3.492-.476 5.5-3.5a138 138 0 0 0 16-3.5 4.46 4.46 0 0 0-2-1.5 26.7 26.7 0 0 0 1.5-6.5q.036 6.617 6.5 7 .175-2.976-2-5 4.227-2.071 4.5 3 2.382-7.745 8-14 2.167-2.483 5.5-2-.41-2.927 2-4.5-3.569-3.34-.5-7.5 4.442-2.868 6-8a4.46 4.46 0 0 0 1.5 2 840 840 0 0 0 10-19.5 34.5 34.5 0 0 1-2-9.5" style="opacity:1"/><path fill="#eebcfc" d="M349.5 249.5q.147 3.08-2 5-.147-3.08 2-5" style="opacity:1"/><path fill="#edb4fc" d="M208.5 248.5a25.5 25.5 0 0 1-5 7l-4 3q3.399-5.904 9-10" style="opacity:1"/><path fill="#16192a" d="M383.5 197.5q1.229 4.207 1.5 9l.5 52a852 852 0 0 1-1.5 57l-1.5-1.5q1.494-58.141 1-116.5" style="opacity:1"/><path fill="#4c23c3" d="m295.5 223.5 2 1a54.9 54.9 0 0 1 0 20q-4.174 11.678-16 15-7 2-14 0-1 0-1-1 23.038 2.79 31-18.5.165-8.193-2-16.5" style="opacity:1"/><path fill="#6d3bd0" d="M353.5 218.5a84 84 0 0 1-1 17 131 131 0 0 1-3 14q-2.147 1.92-2 5a87 87 0 0 0-6 11q-2.11.71-2 3-3.13 1.627-4 5 0 2-2 2-3 2-5 5-2.29-.11-3 2-10.41 8.701-24 11 .407-2.895 3-4 5.943-3.972 13-6.5a25.1 25.1 0 0 0 4-4.5q6.159.027 7.5-6 8.583-8.636 13.5-20 8.008-18.034 7-38 .975-.456 2-1a112 112 0 0 0 2 5" style="opacity:1"/><path fill="#4b25b0" d="M361.5 257.5v2q-2.995 4.988-6 10v1q-6.832 10.345-16 19a5.73 5.73 0 0 0-3 1 149 149 0 0 0 8.5-11l1 1q7.981-9.936 13-22 1.006-1.129 2.5-1" style="opacity:1"/><path fill="#703fd0" d="M61.5 255.5h1q.383 3.774 2.5 7a89.5 89.5 0 0 1 7.5 10q-5.208-3.96-9-9.5a14.1 14.1 0 0 1-2-7.5" style="opacity:1"/><path fill="#e3aefc" d="M347.5 254.5a20.7 20.7 0 0 1-1 5q-1.785 3.554-5 6a87 87 0 0 1 6-11" style="opacity:1"/><path fill="#090b18" d="M17.5 314.5v6q2.865 18.556 14.5 33 8.577 11.076 21.5 16.5l-3 1q3.543 2.597 8 2.5 2.04 2.264-1.5 2a40.4 40.4 0 0 1-8-3q-1.148.105-1.5 1-14.547-6.295-25-18.5 1.684-1.565 4-2a137 137 0 0 0-5-6.5 266 266 0 0 0-8.5-20 94 94 0 0 1-1.5-11v-43q1.496.045 2-1.5a2665 2665 0 0 1-1-66l.5-55.5 1 4q.714 78.003 2 156 .297 2.822 1.5 5" style="opacity:1"/><path fill="#150945" d="M361.5 259.5q-.738 6.496-6 10 3.005-5.012 6-10" style="opacity:1"/><path fill="#935ddf" d="M218.5 233.5q1.257.513 1 2a100.6 100.6 0 0 0-11 13q-5.601 4.096-9 10-1.671 4.356-6 6c-3 1-5 3-6 6a306 306 0 0 0-15 14.5 2.43 2.43 0 0 0 2 .5q-7.678 6.84-18 9 .627-1.083 2-1.5-1.373-.417-2-1.5a399 399 0 0 1 18-12.5 2763 2763 0 0 1 44-45.5" style="opacity:1"/><path fill="#1c1446" d="M34.5 181.5q-4.062 20.374-4 40a39 39 0 0 1 1.5 7q.575.834 1.5 1l3 14a129 129 0 0 0 4.5 15 3351 3351 0 0 0 19.5 27q-2.072-1.951-5-2.5L40 265.5a114 114 0 0 1-3.5-14 2031 2031 0 0 1-3.5-8q.078-6.235-2.5-11.5l2-1a35 35 0 0 1-3.5-8.5q-.704-20.353 4-40 .575-.834 1.5-1" style="opacity:1"/><path fill="#150d3e" d="M233.5 242.5q-.961 1.473-2 3 2 2 0 4-2.58 2.15-6 2.5-1.37 3.5-4.5 5.5a25.8 25.8 0 0 1-2 8q-1.67-1.817-3.5 0-.859 2.367-1 4.5-1.926 1.026-3.5-.5a82 82 0 0 1-7.5 4 656 656 0 0 1 28-30.5 2.43 2.43 0 0 1 2-.5" style="opacity:1"/><path fill="#e8b4fc" d="M341.5 265.5q.11 2.29-2 3-.11-2.29 2-3" style="opacity:1"/><path fill="#ecb4fd" d="M193.5 264.5a25.7 25.7 0 0 1-6 6c1-3 3-5 6-6" style="opacity:1"/><path fill="#7e41ea" d="M203.5 255.5a96 96 0 0 1-5.5 10q-1.34-1.817-2.5 0a61 61 0 0 1-4.5 9 4.46 4.46 0 0 0-1.5-2q-2.646 2.667-6 4a17.9 17.9 0 0 0 4-6 25.7 25.7 0 0 0 6-6q4.329-1.644 6-6z" style="opacity:1"/><path fill="#6d30ee" d="M59.5 251.5q1.76 1.52 2 4a14.1 14.1 0 0 0 2 7.5q3.792 5.54 9 9.5 7.095 7.104 15 13 6.452 4.733 14 8 3.999 2.013 7 5.5-3.891-.984-7.5 1.5-3.59-2.8-7.5-2-3.447-2.097-2-5.5-1.5-1-3 0 2.082 1.334-.5 1.5-1.312-2.727-5.5-4.5l2-1q-.141-2.133-1-4.5-1.5 2-3 0-1.807 2.457-4 1l-2 2a32.4 32.4 0 0 1-4-5.5q3.644-.677.5-2.5a13.9 13.9 0 0 1-4 3q-3.176-5.448-9.5-5a149 149 0 0 1-10-13 127 127 0 0 1-4-12q.233-5.452 3.5-1 1.159-2.023 3.5-2.5l-1-1 3.5-3.5a39.7 39.7 0 0 1 6.5 7" style="opacity:1"/><path fill="#e8b1fb" d="M339.5 268.5q-.87 3.373-4 5 .87-3.373 4-5" style="opacity:1"/><path fill="#0e0d25" d="M285.5 156.5a81 81 0 0 0 3 2.5 219 219 0 0 0 28 8 56.1 56.1 0 0 1 13.5 11.5q4.01 6.12 8 12 .315 1.954-.5 4 5.802 11.223 5 24 1.011 14.975-6 28a9.1 9.1 0 0 1 1 5h-4a1732 1732 0 0 1-3 9.5 242 242 0 0 0-20 17q-1.926 1.026-3.5-.5-4.274 1.317-7.5 4-13.671 5.01-28.5 5a1839 1839 0 0 0-52.5-1 248 248 0 0 1-11 1.5q-3.522.52-5.5 3.5l-1-1q-1.68 4.334-5 5-1.513 2.288-1.5 5-5.247.098-1.5 4 4.222 3.715 6 9a9.2 9.2 0 0 0 4.5 2q.116 1.875 2 2.5a2.43 2.43 0 0 1-2 .5 27.3 27.3 0 0 1-6.5-3 26.8 26.8 0 0 0-3.5-7.5q-2.72-.921-1 1-1.817 2.367-4 .5 3.7-4.645-.5-9a28 28 0 0 1-1.5 5 3.65 3.65 0 0 0 1 1.5q-2.514-.651-5-2.5l-1 1q1.5 2.5 4 4l-2 1q-3.392-1.722-7-1.5-2.206 4.702-6.5 7.5l-1-1q-4.767 2.034-9 3-7.971-2.177-16.5 1.5-17.802 1.914-34.5-3.5a6.3 6.3 0 0 0-3 1 73 73 0 0 0-13.5-3.5q-6.135-6.567-15-7.5a8.44 8.44 0 0 0-.5-4q-2.823 5.726-6.5.5 2.023-2.452-.5-4.5-2.23 1.13-.5 2.5-4.27 1.416-7.5-1.5-.925-1.423.5-2.5 3.312-.286 6-1.5 4.024 2.754 9 3 2.975 1.457 6 3 3.724 4.862 10 5 1.78 3.713 6 3a40.3 40.3 0 0 0 8 5.5q16.982 4.266 33.5-.5a20.5 20.5 0 0 1 5.5 3 12 12 0 0 1 6-1q-.623-3.672 3-4 1.721.476 2.5 2a24.7 24.7 0 0 1 10.5-4q2.151-1.633 3-4 5.613-3.048 12-5.5 1.356-5.585 5.5-9.5l2 2a79 79 0 0 1 11.5-9.5l1-1q-4.123-3.285 1-5-1.255-1.517-1-3.5a82 82 0 0 0 7.5-4q1.574 1.526 3.5.5.141-2.133 1-4.5 1.83-1.817 3.5 0a25.8 25.8 0 0 0 2-8q3.13-2 4.5-5.5 3.42-.35 6-2.5 2-2 0-4a186 186 0 0 0 2-3h10a4.93 4.93 0 0 0 .5 3l1-1a20.23 20.23 0 0 0 7.5 7.5q-2 1.5 0 3 2.9.377 5.5 1.5-.394 2.176.5 4a3.65 3.65 0 0 0 1.5-1q3.342 2.42 7.5 2v3q6.642-.899 12 0a59.2 59.2 0 0 0 11.5-8q.677 3.644 2.5.5a3.65 3.65 0 0 1-1-1.5 46.6 46.6 0 0 1 6-5.5q-.531-2.439 0-5.5 2.23-4.144 2-9 .55-6.23-3-11-2.457-3.683 1-6 8.329 11.45 5.5 26a8.9 8.9 0 0 0-3 4l-1-1a62 62 0 0 1-2.5 9.5 15.5 15.5 0 0 0-5.5 3.5q-2.76-2-1.5.5-4.291 2.748-7.5 6.5a471 471 0 0 1-24.5-2.5q-1.491-1.993-3-4 2.167-4.838-2-2 .686.621 1 1.5-1.783 1.393-4 1v-4a129 129 0 0 0-16-6 12.4 12.4 0 0 0-2.5 4q-2.767.825-4.5 3 .885 1.948 3 2.5-2.098.892-4-.5-.342 6.13-5 10a7.25 7.25 0 0 1-2.5-2q-1.79 3.185-2 7a16.7 16.7 0 0 0-4-4l-1.5 1.5a274 274 0 0 1 4 4q-3.59 2.327-4 6.5a614 614 0 0 1 53.5 0l5-3q15.92 2.061 35.5-4-.16-3.604 3-5.5 5.355-2.25 10.5-4.5 2.888-7.122 9-11a28.4 28.4 0 0 1 5-10l1 2a88.5 88.5 0 0 1 3.5-14.5 189.4 189.4 0 0 1-2.5-30.5q-.981 1.794-1.5 0l1-2q-1.497-3.248-3-6.5a6.3 6.3 0 0 1 1-3 32.6 32.6 0 0 0-6-9l1-1a32.5 32.5 0 0 0-6-2.5q-2.175-2.024-2-5a349 349 0 0 0-11.5-4q-1.622 3.4-4.5.5 2.701-.476 1-2a55.8 55.8 0 0 0-12-2l-2-2a53 53 0 0 0-7 0q-2.875-5.673-9-6a108 108 0 0 1-7.5 7.5l-1 5a136 136 0 0 0-10.5 4 22.1 22.1 0 0 0-3 6q-3.542-1.913-6.5 1-6.255-3.263-12.5-.5l2 2q-7.84.298-11.5 7.5-1 3 0 6 2.74 2.481 5.5 2.5-2.935 3.182-1.5 7.5a32.1 32.1 0 0 0 7.5 3l1.5 3q7.629-6.966 17.5-4v1q-1.184.424-2 1.5 1.712 1.112 0 2.5-4.603 1.354-7 5.5-5.518 1.252-11 2.5a26 26 0 0 0-5-3q2.259-1.87 4.5 0l1.5-1.5q-4.649-1.351-9-1a69 69 0 0 1-4.5-6.5 1544 1544 0 0 1-6.5-5q1.238-1.426.5-3-4.37-1.305-7.5-4.5 4.782-2.901 4.5-8.5a2024 2024 0 0 0 18-14q5.295 3.127 11 0 3.18 1.439 6.5.5a112 112 0 0 0 11-9 10.1 10.1 0 0 1 4-1.5 206 206 0 0 0 11.5-13q4.392 5.332 10.5 5" style="opacity:1"/><path fill="#110b33" d="M243.5 242.5a13.1 13.1 0 0 1 7 1 3.65 3.65 0 0 1-1 1.5 23.16 23.16 0 0 1 5.5 8.5 11.3 11.3 0 0 0 3.5 1.5q1.079 3.834 5 3.5h3q0 1 1 1 .166.926 1 1.5l5.5.5q4.299.3 7.5-2 11.826-3.322 16-15h1q-.531 3.061 0 5.5a46.6 46.6 0 0 0-6 5.5 3.65 3.65 0 0 0 1 1.5q-1.823 3.144-2.5-.5a59.2 59.2 0 0 1-11.5 8q-5.358-.899-12 0v-3q-4.158.42-7.5-2a3.65 3.65 0 0 1-1.5 1q-.894-1.824-.5-4a20.4 20.4 0 0 0-5.5-1.5q-2-1.5 0-3a20.23 20.23 0 0 1-7.5-7.5l-1 1a4.93 4.93 0 0 1-.5-3" style="opacity:1"/><path fill="#1b0953" d="M291.5 217.5q-3.8-4.774-10-5-12.927-5.082-24 4 1.425-3.923 5-6 14.058-4.55 27 3 2.03 1.536 2 4" style="opacity:1"/><path fill="#0a0c1a" d="M298.5 218.5q.166-.925 1-1.5h-4l1-1q-2.124-3.397-6-3.5.865-4.575-3.5-6-3.564.634-6.5-2.5a122 122 0 0 0-21 1 27.2 27.2 0 0 0-5 3.5q-9.871-2.966-17.5 4l-1.5-3a32.1 32.1 0 0 1-7.5-3q-1.435-4.318 1.5-7.5-2.76-.019-5.5-2.5-1-3 0-6 3.66-7.202 11.5-7.5l-2-2q6.245-2.763 12.5.5 2.958-2.913 6.5-1a22.1 22.1 0 0 1 3-6q5.205-2.232 10.5-4l1-5q3.96-3.593 7.5-7.5 6.125.327 9 6a53 53 0 0 1 7 0l2 2q6.126.347 12 2 1.701 1.524-1 2 2.878 2.9 4.5-.5a349 349 0 0 1 11.5 4q-.175 2.976 2 5a32.5 32.5 0 0 1 6 2.5l-1 1a32.6 32.6 0 0 1 6 9 6.3 6.3 0 0 0-1 3q1.503 3.252 3 6.5l-1 2q.519 1.794 1.5 0 .019 15.38 2.5 30.5a88.5 88.5 0 0 0-3.5 14.5l-1-2a28.4 28.4 0 0 0-5 10q-6.112 3.878-9 11-5.145 2.25-10.5 4.5-3.16 1.896-3 5.5-19.58 6.061-35.5 4l-5 3a614 614 0 0 0-53.5 0q.41-4.173 4-6.5a274 274 0 0 0-4-4l1.5-1.5a16.7 16.7 0 0 1 4 4q.21-3.815 2-7a7.25 7.25 0 0 0 2.5 2q4.658-3.87 5-10 1.902 1.392 4 .5-2.115-.552-3-2.5 1.733-2.175 4.5-3a12.4 12.4 0 0 1 2.5-4 129 129 0 0 1 16 6v4q2.217.393 4-1a3.65 3.65 0 0 0-1-1.5q4.167-2.838 2 2 1.509 2.007 3 4a471 471 0 0 0 24.5 2.5q3.209-3.752 7.5-6.5-1.26-2.5 1.5-.5a15.5 15.5 0 0 1 5.5-3.5 62 62 0 0 0 2.5-9.5l1 1a8.9 8.9 0 0 1 3-4q2.829-14.55-5.5-26" style="opacity:1"/><path fill="#2d1174" d="M267.5 259.5q7 2 14 0-3.201 2.3-7.5 2l-5.5-.5q-.834-.574-1-1.5" style="opacity:1"/><path fill="#080b15" d="M283.5 175.5q9.839 3.945 19.5 0 3.876 1.62 6.5 5a9.86 9.86 0 0 0 6 1 16.9 16.9 0 0 0 1 8q6.447-4.02 7 4a8.4 8.4 0 0 0-4 .5q1.255 1.517 1 3.5h5q.252 7.123 1 13.5-3.952 4.558-2.5 10.5a109 109 0 0 1 6.5 7.5 8.4 8.4 0 0 1-4 .5v8h-5a63 63 0 0 0 0 15 9.86 9.86 0 0 1-6 1 9.86 9.86 0 0 0-1-6q-3.321 3.636-3-2h-4a32.5 32.5 0 0 1 .5-8q8.753-6.563 6.5-16l-2 7a29 29 0 0 0-4-1.5 255 255 0 0 1-5.5-12.5q-3.384-2.304-8.5-4-1.634-4.768-5.5-8-.76-2.244 1.5-3.5-3.14-2.028-7-1.5v-16h-15v-4q8.166.913 15-2" style="opacity:1"/><path fill="#34167e" d="M342.5 252.5q-4.917 11.364-13.5 20-1.341 6.027-7.5 6a28 28 0 0 0 1.5-4q8.496-3.571 11.5-12a58.6 58.6 0 0 1 8-10" style="opacity:1"/><path fill="#31167a" d="M36.5 243.5q2.077 1.61 3.5 4 2.173 9.296 7.5 17a149 149 0 0 0 10 13 80 80 0 0 0 6.5 9 201 201 0 0 0 13.5 11q-4.976-.246-9-3a481 481 0 0 0-8-9 3351 3351 0 0 1-19.5-27 129 129 0 0 1-4.5-15" style="opacity:1"/><path fill="#d89df9" d="M333.5 275.5q-1 4-5 5 2-3 5-5" style="opacity:1"/><path fill="#1b114a" d="M197.5 249.5a411 411 0 0 0-9.5 12 11.3 11.3 0 0 1-3.5 1.5q-9.999 8.232-17 18.5a4.93 4.93 0 0 0-3 .5q-5.945 5.894-14.5 6.5a28.2 28.2 0 0 1-8.5 4q-15.508.25-31-.5a250 250 0 0 1-11-3.5 948 948 0 0 0 46 0 233 233 0 0 1 16-8q5.13-5.148 11-9 1 0 1-1a26.4 26.4 0 0 0 4-4.5l9-5q1.244-2.724 2.5-5.5l1 1q2.472-5.014 7.5-7" style="opacity:1"/><path fill="#151136" d="m64.5 249.5 2 2a25.7 25.7 0 0 0 5.5 7q.745 3.465.5 7 4.03 1.746 7 5.5-1.267 2.337 2 3l-1 1q2.71 1.855 6 1l4 4a61.7 61.7 0 0 1 14 5 50.4 50.4 0 0 1 13 2.5q7.386-.308 13.5 0 12.236-2.37 24.5-5-.329-1.763 1-3 1.902 1.392 4 .5a3.65 3.65 0 0 1-1-1.5q4.136-1.88 7-5.5a10.1 10.1 0 0 1 6-1.5q-5.87 3.852-11 9a233 233 0 0 0-16 8 948 948 0 0 1-46 0 133 133 0 0 0-13-5.5A120 120 0 0 1 73 270.5a8.2 8.2 0 0 0-2.5-4q1.97-3.027-2-3.5l1-1a8.4 8.4 0 0 0-4-.5q.059-3.884-3-6 1.695-2.722 2-6" style="opacity:1"/><path fill="#edb1fb" d="M187.5 270.5a17.9 17.9 0 0 1-4 6 57.5 57.5 0 0 0-9 9 2.43 2.43 0 0 1-2-.5 306 306 0 0 1 15-14.5" style="opacity:1"/><path fill="#2c1571" d="M212.5 228.5a836 836 0 0 1 6 5 2763 2763 0 0 0-44 45.5 399 399 0 0 0-18 12.5q-18.475 4.681-37 3a316 316 0 0 0 22-2 28.2 28.2 0 0 0 8.5-4q8.555-.606 14.5-6.5a4.93 4.93 0 0 1 3-.5q7.001-10.268 17-18.5a11.3 11.3 0 0 0 3.5-1.5 411 411 0 0 1 9.5-12q2.849-2.945 7-4.5a71 71 0 0 1 9.5-10.5q-.228-3.029-1.5-6" style="opacity:1"/><path fill="#daa2fb" d="M328.5 280.5q-.71 2.11-3 2 .71-2.11 3-2" style="opacity:1"/><path fill="#0c0e1a" d="M45.5 282.5q1.53 5.04 6 8a445 445 0 0 1 17 4q-2.688 1.214-6 1.5-1.425 1.077-.5 2.5 3.23 2.916 7.5 1.5-1.73-1.37.5-2.5 2.523 2.048.5 4.5 3.677 5.226 6.5-.5a8.44 8.44 0 0 1 .5 4q8.865.933 15 7.5 6.96 1.115 13.5 3.5a6.3 6.3 0 0 1 3-1q16.698 5.414 34.5 3.5 8.529-3.677 16.5-1.5 4.233-.966 9-3l1 1q4.294-2.798 6.5-7.5 3.608-.222 7 1.5l2-1q-2.5-1.5-4-4l1-1q2.486 1.849 5 2.5a3.65 3.65 0 0 1-1-1.5 28 28 0 0 0 1.5-5q4.2 4.355.5 9 2.183 1.867 4-.5-1.72-1.921 1-1a26.8 26.8 0 0 1 3.5 7.5 27.3 27.3 0 0 0 6.5 3q2.297 2.137-1 2a22.6 22.6 0 0 1-8-2 28.2 28.2 0 0 1-7 2q.393-2.217-1-4-6.683 4.84-15 4 1.64 7.108-5.5 6a46.3 46.3 0 0 1-7.5-2l-9 1.5a20.2 20.2 0 0 1 6 1.5 65 65 0 0 1-16 1v-3a64 64 0 0 1-13.5 0q-2.566-.091-4 2a24.2 24.2 0 0 0-5.5-1q-1.344 9.861-3.5 0-4.095 2.452-6.5-3-6.413 4.098-14 2.5-1.255-1.517-1-3.5-4.5-.5-4 4h-4v-7l-8 1q.593-4.535-3-3-6.126-4.217-13.5-5l-4 4q-1.115-4.517-4-8-2.517 1.773.5 3.5l-.5 1.5q-3.25 1.25-4.5 4.5a4.93 4.93 0 0 1-3 .5v-3q-4.365 2.95-10 3v8h-3a9.1 9.1 0 0 0 1 5q1.725 1.846 3.5 0a23.8 23.8 0 0 1 2.5 6h-5a13 13 0 0 1-1 5.5q.608 1.418 2 2l-2 1q3.037 2.515 7 3 2 1 0 2a19.9 19.9 0 0 1 4 3.5q1.858-2.26-1-3.5a9.5 9.5 0 0 0 2.5-1.5q1.133 5.633-.5 11-18.17-13.642-21-35.5a148 148 0 0 1-2-18.5 43 43 0 0 1 3-11.5q-1.617-1.011-2-3 1.045-8.243 2-16.5.434-2.316 2-4a9.3 9.3 0 0 1-2-2.5q2.94-1.95 3.5-5.5.74 2.451.5 5 9.07-.74 4 6.5 2.715 4.858 7.5 2.5 2.108 4.363 6.5 6" style="opacity:1"/><path fill="#130d37" d="M337.5 251.5q-1.28 4.641-5 7.5l1 1a749 749 0 0 0-15 15.5 29.1 29.1 0 0 0-10 7.5 96.7 96.7 0 0 0-19.5 6.5q-6.255-1.26-12.5 1a3.65 3.65 0 0 1-1.5-1q-14.15 1.193-28.5 2a206.5 206.5 0 0 0-33-.5 278 278 0 0 0-11 3.5q.016-2.276 2-3.5a30.3 30.3 0 0 1 10-3l69-1a44.1 44.1 0 0 0 14.5-3.5q1.545-.504 1.5-2 3.226-2.683 7.5-4 1.574 1.526 3.5.5a242 242 0 0 1 20-17q1.403-4.394 3-9.5z" style="opacity:1"/><path fill="#1b0e4e" d="M343.5 238.5q.166.925 1 1.5a40.7 40.7 0 0 0-3 9.5 71.7 71.7 0 0 0-7 13q-3.004 8.429-11.5 12a28 28 0 0 1-1.5 4 25.1 25.1 0 0 1-4 4.5q-7.057 2.528-13 6.5l-13 2q-20.235.826-40 2a485 485 0 0 0-44 1q-2.595.789-4 3-1 0-1 1-1 0-1 1-2.23 5.182 1 10-1.494.129-2.5-1-3.734-8.112 2.5-14a278 278 0 0 1 11-3.5 206.5 206.5 0 0 1 33 .5q14.35-.807 28.5-2 .621.686 1.5 1 6.245-2.26 12.5-1a96.7 96.7 0 0 1 19.5-6.5 29.1 29.1 0 0 1 10-7.5 749 749 0 0 1 15-15.5l-1-1q3.72-2.859 5-7.5 3.264-1.82 1-5a144 144 0 0 1 5-8" style="opacity:1"/><path fill="#461ccb" d="M360.5 181.5q3.9 7.556 6 16v6q.816 11.637 1 21.5-.744 2.994-3 5 1.806 2.029 2 5-2.22 12.33-5 22.5-1.494-.129-2.5 1-5.019 12.064-13 22l-1-1a149 149 0 0 1-8.5 11q-5.65 7.352-15 9.5-5.188 4.545-12 5.5-7.104.105-13.5 0-2.277.995-3.5 3a299 299 0 0 1-34 1q-26.005.25-52-.5-2.744-.41-4.5-2.5a25 25 0 0 1-.5-7q0-1 1-1-.11 2.29 2 3-1.141 7.04 3.5 1 3.75 1.104 7 3 5.293-4.973 11-1l1-2q1 4 2 0a7.3 7.3 0 0 0 2 3q1-2 2 0 2-4 6-2l2-2q1 4 2 0l5 3q2.23-1.13.5-2.5 1.866-.684 2.5 1.5a6.8 6.8 0 0 1 1.5-3q5.305.13 10.5 0a48 48 0 0 0 6 3q3-2 6 0l2-2q7.046 1.987 12.5-1.5l-5-1q3.845-1.377 6.5 1.5 3.777-2.77 8-1a95 95 0 0 1 15.5-4.5 16.64 16.64 0 0 0 6-5 23.7 23.7 0 0 0 6-2.5q1.824.753 3.5 1 3.252-1.694 1.5-4.5 2.595-2.779 3.5.5 6.372-5.257 9-13 2.81.465 5.5-1.5l-1-3q5.033-1.863 4-6.5 1.024-4.442 2.5-1a12.4 12.4 0 0 0 2.5-4 6.9 6.9 0 0 1-2-4q.487-3.103 2.5-1 2.734-10.066 2-20a42 42 0 0 1 3.5-7.5 75 75 0 0 1-2-8.5q2.18-4.197 3-9-.476-1.721-2-2.5-.089-3.46 2-7l-1-2.5a9.4 9.4 0 0 0-3 3q-2.579-3.63-.5-7 1.34 1.817 2.5 0l-1.5-3q-.981 1.794-1.5 0a9.1 9.1 0 0 0 1-5" style="opacity:1"/><path fill="#100a2d" d="M355.5 270.5q-1.658 3.32 0 6.5-5.5 4.951-9 10 3.254.643 6-1.5.91.186 1 1-1.15 1.008-2 2.5-3.76.14-6.5 2.5a3.65 3.65 0 0 0-1.5-1q-3.234 2.442 0 3-5.577 3.786-11 8.5a135 135 0 0 1-7 2.5q6.325 3.802-1 2.5-.834-.574-1-1.5-1.286-1.953-1.5-4 2.558-1.895 5-1a10.94 10.94 0 0 1 4.5-3q1.329-1.237 1-3 4.715-.704 7-5 9.168-8.655 16-19" style="opacity:1"/><path fill="#200d5c" d="M62.5 255.5q3.059 2.116 3 6a8.4 8.4 0 0 1 4 .5l-1 1q3.97.473 2 3.5a8.2 8.2 0 0 1 2.5 4A120 120 0 0 0 86.5 283q6.654 2.41 13 5.5 5.31 1.83 11 3.5 15.492.75 31 .5a316 316 0 0 1-22 2l-10-1h-5a200 200 0 0 0-17-8 137 137 0 0 1-15-13 89.5 89.5 0 0 0-7.5-10q-2.117-3.226-2.5-7" style="opacity:1"/><path fill="#1e0560" d="M291.5 291.5q-.626 1.083-2 1.5-18.993.75-38 .5 19.765-1.174 40-2" style="opacity:1"/><path fill="#0b0b1d" d="M343.5 293.5q1.884-.058 3 1.5-4.01 4.518-10 5l2 1q-3.158 1.79-5 5-1.573.739-3-.5-1.817 1.16 0 2.5a106.8 106.8 0 0 1-24.5 8.5l-1-1-7 3q-3.082-.522-6 2l-1-3q-3 2-6 0a96.4 96.4 0 0 1-18.5 4q-3-4-6 0-.92-2.22-1-4a25.6 25.6 0 0 0-6 6 10.8 10.8 0 0 1-3-2.5 129 129 0 0 0-16-.5 43 43 0 0 0-7.5-1l-1 2q-9.827-1.569-18 0a61 61 0 0 1-5.5-2q3.297.137 1-2a2.43 2.43 0 0 0 2-.5q-1.884-.625-2-2.5 5.101-.474 10.5-1 6.867 3.442 14.5 2.5l-1-1q3.26-2.696 7-.5 17.292-2.367 32.5-3 1.753.763 2.5 2.5 7.58.325 15 1.5 6.776-2.12 12.5-1 8.815-3.574 19-6 1.31.353 2.5 1 1.794-.519 0-1.5 2.35-.913 4-2.5h1q.166.926 1 1.5 7.325 1.302 1-2.5a135 135 0 0 0 7-2.5q5.423-4.714 11-8.5" style="opacity:1"/><path fill="#4720b2" d="M304.5 289.5q-2.593 1.105-3 4a363 363 0 0 0-21.5 2q-10.998-.15-22.5 0a639 639 0 0 1-50-1 485 485 0 0 1 44-1q19.007.25 38-.5 1.374-.417 2-1.5z" style="opacity:1"/><path fill="#9560ef" d="M207.5 294.5a639 639 0 0 0 50 1q-24.353 1.02-49 2-2.153-.894-5 0 1.405-2.211 4-3" style="opacity:1"/><path fill="#cf98f7" d="M208.5 297.5q-2.5 1.5-4 4-2.11-.71-2-3 0-1 1-1 2.847-.894 5 0" style="opacity:1"/><path fill="#150d3d" d="M203.5 273.5q-.255 1.983 1 3.5-5.123 1.715-1 5l-1 1a79 79 0 0 0-11.5 9.5l-2-2q-4.144 3.915-5.5 9.5-6.387 2.452-12 5.5-7.937 4.113-17 5a60 60 0 0 1 7-3 53.6 53.6 0 0 0 14-6.5 164.5 164.5 0 0 0 19-19.5z" style="opacity:1"/><path fill="#140a40" d="M339.5 289.5q-2.285 4.296-7 5 .329 1.763-1 3a10.94 10.94 0 0 0-4.5 3q-2.442-.895-5 1 .214 2.047 1.5 4h-1a210 210 0 0 1-24 4.5q-19.994.75-40 .5v-1a299 299 0 0 0 34-1q8.942-.17 17-3 6.812-.955 12-5.5 9.35-2.148 15-9.5a5.73 5.73 0 0 1 3-1" style="opacity:1"/><path fill="#5624df" d="M57.5 277.5q6.324-.448 9.5 5a13.9 13.9 0 0 0 4-3q3.144 1.823-.5 2.5a32.4 32.4 0 0 0 4 5.5l2-2q2.193 1.457 4-1 1.5 2 3 0 .859 2.367 1 4.5l-2 1q4.188 1.773 5.5 4.5 2.582-.166.5-1.5 1.5-1 3 0-1.447 3.403 2 5.5 3.91-.8 7.5 2 3.609-2.484 7.5-1.5-3.001-3.487-7-5.5h3q4.493 2.615 10 3v1a8.4 8.4 0 0 0-4 .5 85 85 0 0 0 11 6.5q11.414-2.484 23.5-3a7.3 7.3 0 0 1 2 3q1-4 2 0 2.997-1.157 5 2 2.55-4.046 7-6l1 1q3.236-2.446 7.5-1.5a79 79 0 0 1 8-7q-1.526-1.574-.5-3.5 2.288 3.88 6.5 2.5 2.77-7.038 7-13 1-1 2 0-1.368 2.438 2 2.5a164.5 164.5 0 0 1-19 19.5 53.6 53.6 0 0 1-14 6.5 156.9 156.9 0 0 1-46 2q-16.385-2.62-32-9a407 407 0 0 0-6-3 201 201 0 0 1-13.5-11 80 80 0 0 1-6.5-9" style="opacity:1"/><path fill="#c98efa" d="M156.5 294.5q-4.137 1.891-9 2.5-14.492.75-29 .5a696 696 0 0 0 38-3" style="opacity:1"/><path fill="#703fd1" d="M156.5 291.5q.627 1.083 2 1.5-1.373.417-2 1.5a696 696 0 0 1-38 3h-4v-1a4.93 4.93 0 0 0 3-.5q-4.319-.819-8-2.5l10 1q18.525 1.681 37-3" style="opacity:1"/><path fill="#a670ef" d="M104.5 293.5h5q3.681 1.681 8 2.5a4.93 4.93 0 0 1-3 .5q-5.507-.385-10-3" style="opacity:1"/><path fill="#9d66e9" d="M87.5 285.5a200 200 0 0 1 17 8h-3q-7.548-3.267-14-8" style="opacity:1"/><path fill="#100c2c" d="M299.5 281.5q.045 1.496-1.5 2a44.1 44.1 0 0 1-14.5 3.5l-69 1a30.3 30.3 0 0 0-10 3q-1.984 1.224-2 3.5-6.234 5.888-2.5 14 1.006 1.129 2.5 1 .456.975 1 2l7 1q13.85-.35 27.5 0a795 795 0 0 0 13.5-2h7q20.006.25 40-.5a210 210 0 0 0 24-4.5q-1.65 1.587-4 2.5 1.794.981 0 1.5a11.5 11.5 0 0 0-2.5-1q-10.185 2.426-19 6-5.724-1.12-12.5 1a132 132 0 0 0-15-1.5q-.747-1.737-2.5-2.5-15.208.633-32.5 3-3.74-2.196-7 .5l1 1q-7.633.942-14.5-2.5-5.399.526-10.5 1a9.2 9.2 0 0 1-4.5-2q-1.778-5.285-6-9-3.747-3.902 1.5-4-.013-2.712 1.5-5 3.32-.666 5-5l1 1q1.978-2.98 5.5-3.5 5.517-.627 11-1.5 26.129.123 52.5 1 14.829.01 28.5-5" style="opacity:1"/><path fill="#401ba2" d="M309.5 305.5q-8.058 2.83-17 3 1.223-2.005 3.5-3 6.396.105 13.5 0" style="opacity:1"/><path fill="#4d27b4" d="M83.5 300.5q15.615 6.38 32 9h-3a74.6 74.6 0 0 1-19-4q-6.276-.138-10-5" style="opacity:1"/><path fill="#090c16" d="M202.5 319.5a61 61 0 0 0 5.5 2q8.173-1.569 18 0l1-2q3.699.159 7.5 1 .666 2.42 3 3.5-2.11 2.178-4.5-.5l-5 1a4.46 4.46 0 0 0-1.5-2q-2.697 2.748-5.5 1l-1 2q-12.155-1.543-24.5 0a8.4 8.4 0 0 1-.5 4q-3.5-8-7 0a8.4 8.4 0 0 1-.5-4q-7.986 1.495-16 3a134 134 0 0 1 13 2.5 29 29 0 0 0-4 1.5q-4.491-1.872-9 0 5.716 1.856 0 2v3h-8a4.93 4.93 0 0 0-.5-3 26.9 26.9 0 0 1-3.5 6 26.9 26.9 0 0 1-3.5-6 25 25 0 0 0-.5 7 8.4 8.4 0 0 1 4 .5q-4.288 2.536-4 7.5h-8v8h-4v8a18.5 18.5 0 0 1 6 .5q-.834.574-1 1.5a914 914 0 0 0-54 1 316 316 0 0 0-24-1.5q-2.115-.552-3-2.5-12.015-2.508-24-5 1.633-5.367.5-11a9.5 9.5 0 0 1-2.5 1.5q2.858 1.24 1 3.5a19.9 19.9 0 0 0-4-3.5q2-1 0-2-3.963-.485-7-3l2-1q-1.392-.582-2-2a13 13 0 0 0 1-5.5h5a23.8 23.8 0 0 0-2.5-6q-1.775 1.846-3.5 0a9.1 9.1 0 0 1-1-5h3v-8q5.635-.05 10-3v3a4.93 4.93 0 0 0 3-.5q1.25-3.25 4.5-4.5l.5-1.5q-3.017-1.727-.5-3.5 2.885 3.483 4 8l4-4q7.374.783 13.5 5 3.593-1.535 3 3l8-1v7h4q-.5-4.5 4-4-.255 1.983 1 3.5 7.587 1.598 14-2.5 2.405 5.452 6.5 3 2.156 9.861 3.5 0 2.884.196 5.5 1 1.434-2.091 4-2 6.651.713 13.5 0v3a65 65 0 0 0 16-1 20.2 20.2 0 0 0-6-1.5l9-1.5a46.3 46.3 0 0 0 7.5 2q7.14 1.108 5.5-6 8.317.84 15-4 1.393 1.783 1 4a28.2 28.2 0 0 0 7-2 22.6 22.6 0 0 0 8 2" style="opacity:1"/><path fill="#180a4b" d="M93.5 305.5a74.6 74.6 0 0 0 19 4q1.663 1.185 4 1.5 13.265.255 26 1.5-21.918 1.455-43-4-4.22.713-6-3" style="opacity:1"/><path fill="#301479" d="M161.5 307.5a60 60 0 0 0-7 3 63 63 0 0 0-12 2 333 333 0 0 0-26-1.5q-2.337-.315-4-1.5h3a156.9 156.9 0 0 0 46-2" style="opacity:1"/><path fill="#2a126d" d="M201.5 299.5q-.245 3.535.5 7 1.756 2.09 4.5 2.5 25.995.75 52 .5v1h-7q-24.225 1.63-49-1-3.23-4.818-1-10" style="opacity:1"/><path fill="#150b42" d="M202.5 309.5q24.775 2.63 49 1a795 795 0 0 1-13.5 2q-13.65-.35-27.5 0l-7-1a44 44 0 0 1-1-2" style="opacity:1"/><path fill="#110e2f" d="M171.5 305.5q-.849 2.367-3 4a24.7 24.7 0 0 0-10.5 4q-.779-1.524-2.5-2-3.623.328-3 4a12 12 0 0 0-6 1 20.5 20.5 0 0 0-5.5-3q-16.518 4.766-33.5.5a40.3 40.3 0 0 1-8-5.5q21.082 5.455 43 4a63 63 0 0 1 12-2q9.063-.887 17-5" style="opacity:1"/><path fill="#10131f" d="M369.5 37.5q5.513 8.73 8.5 19 .817 29.002 1.5 58 1.17 97.999.5 196a30.5 30.5 0 0 0-1.5 9 83.4 83.4 0 0 0-5 17l-8 9q-5.195-7.902 3-12 1.02-4.29 4-7.5-.634-3.564 2.5-6.5a311 311 0 0 0 4.5-50q-.393-11.665-2-22.5 2.687-3.159 2-7.5-.954-12.245-2-24.5 1.417-12.243-2-24l.5-4.5 1 3q.75-9.987.5-20a74 74 0 0 1-2-12q.37-40.448 0-80.5-1.524-.78-2-2.5 3.015-10.287 1.5-21a155 155 0 0 1-5.5-16" style="opacity:1"/><path fill="#393d4f" d="M10.5 75.5a703 703 0 0 0 1 53v187q-1.967 7.662 1 15.5-.462 2.189-2 3.5a62.3 62.3 0 0 1-3.5-14q-.75-92.998-.5-186l2 4a722 722 0 0 0 .5 38q.208-57.522 1.5-101" style="opacity:1"/><path fill="#787c8a" d="M387.5 321.5q-.519 10.962-6 20a18.5 18.5 0 0 1 .5-6q.981 1.794 1.5 0l-1.5-3q-1.29 4.7-4.5 8a239 239 0 0 1 7.5-20l1 2q.951-8.452 1.5-1" style="opacity:1"/><path fill="#8c909f" d="M373.5 336.5q2.682-4.572 4.5-10l1-1q-1.57 11.692-8 22a159 159 0 0 0-8.5 9.5q-2.803 2.403-6 3a140 140 0 0 1 13.5-14.5q2.93-4.132 3.5-9" style="opacity:1"/><path fill="#b7bac4" d="M381.5 341.5q-4.688 11.19-14 19-1.647-1.651-.5-4 2.703-1.934 3.5-5 1.223-2.005 3.5-3 .58-4.649 3.5-8 3.21-3.3 4.5-8l1.5 3q-.519 1.794-1.5 0a18.5 18.5 0 0 0-.5 6" style="opacity:1"/><path fill="#585c6d" d="M370.5 351.5q-.797 3.066-3.5 5-1.147 2.349.5 4-6.828 8.322-17 12-8.973 2.49-18 5-3.331.092-1-2l9-2a124 124 0 0 0 14-5.5q7.095-8.849 16-16.5" style="opacity:1"/><path fill="#0c0f1b" d="M363.5 347.5q.255 1.983-1 3.5a76 76 0 0 1-14 11.5 20.1 20.1 0 0 0-6 1.5q-14.171 11.19-31 7.5-10.256-.433-16 2a345 345 0 0 0-26-2.5l-1.5-1.5q-13.922-.256-32.5 1a2452 2452 0 0 0-91 0 3416 3416 0 0 1-82-2.5q-11.13-1.354-19-8.5 11.985 2.492 24 5 .885 1.948 3 2.5 12.074.295 24 1.5a914 914 0 0 1 54-1q75.216 1.527 147.5 0 2.843.173 5 2 3-2 6 0 2.288-1.83 5.5-2a62.2 62.2 0 0 0 12.5 1 115 115 0 0 1 11.5-3.5l16-8q4.404-6.107 11-9.5" style="opacity:1"/><path fill="#262a3a" d="M11.5 315.5a94 94 0 0 0 1.5 11 266 266 0 0 1 8.5 20 137 137 0 0 1 5 6.5q-2.316.435-4 2 10.453 12.205 25 18.5a77.3 77.3 0 0 0 16 6v1q-39.965-7.464-53-46 1.538-1.311 2-3.5-2.967-7.838-1-15.5" style="opacity:1"/><path fill="#121625" d="M25.5 244.5q1.083-.626 1.5-2a6.98 6.98 0 0 0 2.5 3.5q1.402 4.905 0 9.5 2.696 2.446 3.5 6 .582-3.322 3-4 .449 4.93 2 10a32.5 32.5 0 0 0 6.5 7 3.65 3.65 0 0 1-1 1.5q2.625 2.631 2 6.5-4.392-1.637-6.5-6-4.785 2.358-7.5-2.5 5.07-7.24-4-6.5a12.9 12.9 0 0 0-.5-5q-.56 3.55-3.5 5.5a9.3 9.3 0 0 0 2 2.5q-1.565 1.684-2 4a1523 1523 0 0 1-2 16.5q.383 1.989 2 3a43 43 0 0 0-3 11.5q.404 9.177 2 18.5 2.83 21.858 21 35.5 7.87 7.146 19 8.5a3416 3416 0 0 0 82 2.5q44.894-.844 91 0v3a3235 3235 0 0 0-64 0q-48.72.368-100 0-3.324-2.265-7.5-4a271 271 0 0 0-6.5.5q3.34 1.056 1 3.5-4.457.097-8-2.5l3-1q-12.923-5.424-21.5-16.5-11.635-14.444-14.5-33a5538 5538 0 0 1 4.5-77l1-3q.912 2.35 2.5 4" style="opacity:1"/><path fill="#101123" d="M348.5 362.5q-4.406 5.123-11 7.5 4.05.38 8 0-3.126 1.046-5 3.5l-9 2q-3.999.65-8 1.5a3959 3959 0 0 1-89 .5q-42.503.25-85-.5 3.804-.279 7-1.5a727 727 0 0 1 28-.5 784 784 0 0 1-13-1.5 3235 3235 0 0 1 64 0v-3q18.578-1.256 32.5-1l1.5 1.5q13.05.757 26 2.5 5.744-2.433 16-2 16.829 3.69 31-7.5a20.1 20.1 0 0 1 6-1.5" style="opacity:1"/><path fill="#1c1d3c" d="M171.5 373.5a784 784 0 0 0 13 1.5 727 727 0 0 0-28 .5q-16.754-1.212-34.5 1-23.51-1.861-48.5 0a39.7 39.7 0 0 1-10-2 16.9 16.9 0 0 1 8-1q51.28.368 100 0" style="opacity:1"/><path fill="#353951" d="M350.5 372.5q-2.431 2.426-6 3.5a47.1 47.1 0 0 1-13 2.5 5627 5627 0 0 0-60 2q-27.528.669-52 0h-27a785 785 0 0 0-56-1l98-2q44.503.25 89-.5a168 168 0 0 1 8-1.5q-2.331 2.092 1 2 9.027-2.51 18-5" style="opacity:1"/><path fill="#13162c" d="M71.5 373.5a16.9 16.9 0 0 0-8 1 39.7 39.7 0 0 0 10 2q24.99-1.861 48.5 0 17.746-2.212 34.5-1-3.196 1.221-7 1.5 42.497.75 85 .5l-98 2h-73a77.3 77.3 0 0 1-16-6q.352-.895 1.5-1a40.4 40.4 0 0 0 8 3q3.54.264 1.5-2 2.34-2.444-1-3.5a271 271 0 0 1 6.5-.5q4.176 1.735 7.5 4" style="opacity:1"/><path fill="#595d73" d="M63.5 380.5v-1h73a785 785 0 0 1 56 1q-60.995.994-122 1a21.4 21.4 0 0 1-7-1" style="opacity:1"/><path fill="#191d2b" d="M331.5 378.5a109 109 0 0 1-15.5 3q-20.67-.77-44.5-1a5627 5627 0 0 1 60-2" style="opacity:.271"/><path fill="#171a26" d="M192.5 380.5h27q-26.604 1.01-53.5 2l-1-1-18 2q-38.397-.993-76.5-2 61.005-.006 122-1" style="opacity:.149"/></svg>